<svg width="57" height="13" viewBox="0 0 57 13" fill="none" xmlns="http://www.w3.org/2000/svg">
<path d="M6.15203 6.39252C6.76185 6.50142 7.2791 6.82266 7.70379 7.35625C8.12848 7.88984 8.34083 8.49421 8.34083 9.16936C8.34083 9.7465 8.18838 10.2692 7.88347 10.7375C7.58945 11.1948 7.15931 11.5596 6.59306 11.8319C6.0268 12.0932 5.36798 12.2239 4.6166 12.2239H0.0756606V0.871518H4.40426C5.17742 0.871518 5.84168 1.00219 6.39705 1.26354C6.95241 1.52489 7.37166 1.8788 7.65479 2.32527C7.93792 2.76086 8.07948 3.25089 8.07948 3.79536C8.07948 4.44874 7.90525 4.99321 7.55678 5.4288C7.20832 5.86438 6.74007 6.18562 6.15203 6.39252ZM1.93777 5.64114H4.24091C4.85073 5.64114 5.32442 5.50502 5.662 5.23278C6.01047 4.94966 6.1847 4.54674 6.1847 4.02404C6.1847 3.51224 6.01047 3.11477 5.662 2.83164C5.32442 2.53762 4.85073 2.39061 4.24091 2.39061H1.93777V5.64114ZM4.45326 10.7048C5.08485 10.7048 5.58033 10.5523 5.93968 10.2474C6.29904 9.94252 6.47872 9.51782 6.47872 8.97335C6.47872 8.41798 6.28815 7.97695 5.90702 7.65027C5.52588 7.32358 5.01952 7.16024 4.38792 7.16024H1.93777V10.7048H4.45326ZM12.2265 4.53041C12.4987 4.07305 12.8581 3.71914 13.3046 3.46868C13.7619 3.20733 14.3009 3.07665 14.9217 3.07665V5.0041H14.448C13.7184 5.0041 13.163 5.18923 12.7819 5.55947C12.4116 5.92972 12.2265 6.5722 12.2265 7.48692V12.2239H10.3644V3.22366H12.2265V4.53041ZM16.0126 7.68293C16.0126 6.7791 16.1977 5.97872 16.568 5.28179C16.9491 4.58486 17.4609 4.04582 18.1034 3.66469C18.7568 3.27267 19.4755 3.07665 20.2595 3.07665C20.9674 3.07665 21.5826 3.21822 22.1053 3.50135C22.6389 3.77358 23.0636 4.11661 23.3794 4.53041V3.22366H25.2578V12.2239H23.3794V10.8845C23.0636 11.3092 22.6335 11.6631 22.089 11.9462C21.5445 12.2293 20.9238 12.3709 20.2269 12.3709C19.4537 12.3709 18.7459 12.1749 18.1034 11.7829C17.4609 11.3799 16.9491 10.8246 16.568 10.1167C16.1977 9.39804 16.0126 8.58677 16.0126 7.68293ZM23.3794 7.7156C23.3794 7.0949 23.2487 6.55587 22.9874 6.0985C22.7369 5.64114 22.4048 5.29268 21.991 5.05311C21.5772 4.81354 21.1307 4.69375 20.6516 4.69375C20.1724 4.69375 19.7259 4.81354 19.3121 5.05311C18.8983 5.28179 18.5608 5.62481 18.2994 6.08217C18.049 6.52864 17.9237 7.06223 17.9237 7.68293C17.9237 8.30364 18.049 8.84812 18.2994 9.31637C18.5608 9.78462 18.8983 10.144 19.3121 10.3944C19.7368 10.634 20.1833 10.7538 20.6516 10.7538C21.1307 10.7538 21.5772 10.634 21.991 10.3944C22.4048 10.1549 22.7369 9.8064 22.9874 9.34904C23.2487 8.88078 23.3794 8.33631 23.3794 7.7156Z" fill="white"/>
<path d="M31.1829 10.5578L33.731 3.22366H35.7075L32.2773 12.2239H30.0558L26.6419 3.22366H28.6347L31.1829 10.5578ZM36.4943 7.68293C36.4943 6.7791 36.6794 5.97872 37.0497 5.28179C37.4308 4.58486 37.9426 4.04582 38.5851 3.66469C39.2385 3.27267 39.9572 3.07665 40.7412 3.07665C41.4491 3.07665 42.0643 3.21822 42.587 3.50135C43.1206 3.77358 43.5453 4.11661 43.8611 4.53041V3.22366H45.7396V12.2239H43.8611V10.8845C43.5453 11.3092 43.1152 11.6631 42.5707 11.9462C42.0262 12.2293 41.4055 12.3709 40.7086 12.3709C39.9354 12.3709 39.2276 12.1749 38.5851 11.7829C37.9426 11.3799 37.4308 10.8246 37.0497 10.1167C36.6794 9.39804 36.4943 8.58677 36.4943 7.68293ZM43.8611 7.7156C43.8611 7.0949 43.7304 6.55587 43.4691 6.0985C43.2186 5.64114 42.8865 5.29268 42.4727 5.05311C42.0589 4.81354 41.6124 4.69375 41.1333 4.69375C40.6541 4.69375 40.2077 4.81354 39.7939 5.05311C39.3801 5.28179 39.0425 5.62481 38.7811 6.08217C38.5307 6.52864 38.4054 7.06223 38.4054 7.68293C38.4054 8.30364 38.5307 8.84812 38.7811 9.31637C39.0425 9.78462 39.3801 10.144 39.7939 10.3944C40.2185 10.634 40.665 10.7538 41.1333 10.7538C41.6124 10.7538 42.0589 10.634 42.4727 10.3944C42.8865 10.1549 43.2186 9.8064 43.4691 9.34904C43.7304 8.88078 43.8611 8.33631 43.8611 7.7156ZM47.5647 7.68293C47.5647 6.7791 47.7498 5.97872 48.12 5.28179C48.5012 4.58486 49.013 4.04582 49.6554 3.66469C50.3088 3.27267 51.0275 3.07665 51.8116 3.07665C52.5194 3.07665 53.1347 3.21822 53.6574 3.50135C54.1909 3.77358 54.6156 4.11661 54.9314 4.53041V3.22366H56.8099V12.2239H54.9314V10.8845C54.6156 11.3092 54.1855 11.6631 53.641 11.9462C53.0965 12.2293 52.4758 12.3709 51.7789 12.3709C51.0058 12.3709 50.2979 12.1749 49.6554 11.7829C49.013 11.3799 48.5012 10.8246 48.12 10.1167C47.7498 9.39804 47.5647 8.58677 47.5647 7.68293ZM54.9314 7.7156C54.9314 7.0949 54.8008 6.55587 54.5394 6.0985C54.289 5.64114 53.9568 5.29268 53.543 5.05311C53.1292 4.81354 52.6827 4.69375 52.2036 4.69375C51.7245 4.69375 51.278 4.81354 50.8642 5.05311C50.4504 5.28179 50.1128 5.62481 49.8515 6.08217C49.601 6.52864 49.4758 7.06223 49.4758 7.68293C49.4758 8.30364 49.601 8.84812 49.8515 9.31637C50.1128 9.78462 50.4504 10.144 50.8642 10.3944C51.2889 10.634 51.7354 10.7538 52.2036 10.7538C52.6827 10.7538 53.1292 10.634 53.543 10.3944C53.9568 10.1549 54.289 9.8064 54.5394 9.34904C54.8008 8.88078 54.9314 8.33631 54.9314 7.7156Z" fill="#F97239"/>
</svg>
