<svg width="46" height="54" viewBox="0 0 46 54" fill="none" xmlns="http://www.w3.org/2000/svg">
<path d="M13.7634 53.2714C12.0372 53.2714 10.6393 51.9784 10.6393 50.3836V43.7243C10.6393 42.9376 10.9782 42.2049 11.5712 41.6661C12.9056 40.4485 13.9646 39.5433 14.8224 38.8106C16.4532 37.4205 17.2686 36.7201 17.6181 35.9119C17.9676 35.1038 17.9146 34.0585 17.7981 31.9681C17.7134 30.4702 17.6075 28.4337 17.5969 25.5889C17.5228 25.5566 17.4487 25.5135 17.3851 25.4704L6.83752 19.3175C6.10681 18.8972 5.60908 18.2292 5.43964 17.4425C5.28079 16.699 5.43964 15.9447 5.87383 15.309C6.79516 13.9943 8.71194 13.6064 10.1416 14.4361L19.4078 19.8347C21.5682 18.6171 25.37 18.5524 27.488 20.2442L36.14 15.2012C37.5802 14.3715 39.4864 14.7594 40.4077 16.074C40.8525 16.7098 41.0114 17.4641 40.8419 18.2076C40.6725 18.9942 40.1747 19.6623 39.444 20.0826L28.8964 26.2247C28.8223 26.2678 28.7588 26.3001 28.6846 26.3324C28.674 28.8755 28.5893 30.7396 28.5258 32.1189C28.4305 34.1878 28.3775 35.2223 28.7058 35.9874C29.0341 36.7524 29.786 37.399 31.3003 38.6705C32.1899 39.414 33.2807 40.3407 34.7103 41.6446C35.314 42.1941 35.6422 42.9269 35.6422 43.7027V50.362C35.6422 51.9568 34.2444 53.2499 32.5182 53.2499C30.792 53.2499 29.3942 51.9568 29.3942 50.362V44.9096L26.5031 42.2695C25.5394 42.7221 24.3639 42.9807 23.1355 42.9807C21.907 42.9807 20.7316 42.7329 19.7679 42.2695L16.8768 44.9096V50.362C16.8874 51.9784 15.4789 53.2714 13.7634 53.2714ZM8.48955 14.8672C7.73767 14.8672 6.99637 15.2012 6.57277 15.8262C6.26566 16.2572 6.15976 16.7744 6.27625 17.2701C6.39274 17.8089 6.74221 18.283 7.26112 18.5848L17.8087 24.7376C17.9252 24.8023 18.0523 24.8669 18.1688 24.91C18.3382 24.9747 18.4441 25.1363 18.4441 25.3195C18.4441 28.2936 18.5606 30.4056 18.6453 31.9357C18.8889 36.3861 18.8254 36.5261 15.373 39.4787C14.5258 40.2006 13.4668 41.1058 12.1431 42.3126C11.7301 42.6898 11.4971 43.1962 11.4971 43.735V50.3944C11.4971 51.515 12.5137 52.4202 13.7739 52.4202C15.0236 52.4202 16.0508 51.515 16.0508 50.3944V44.7587C16.0508 44.6402 16.1037 44.5216 16.1885 44.4354L19.4396 41.4722C19.5773 41.3536 19.7679 41.3321 19.9161 41.4075C20.7951 41.8816 21.9494 42.151 23.1567 42.151C24.3639 42.151 25.5076 41.8924 26.3972 41.4075C26.556 41.3213 26.7467 41.3428 26.8737 41.4722L30.1249 44.4354C30.2096 44.5216 30.2625 44.6294 30.2625 44.7587V50.3944C30.2625 51.515 31.2792 52.4202 32.5394 52.4202C33.7996 52.4202 34.8162 51.515 34.8162 50.3944V43.735C34.8162 43.1962 34.5832 42.7006 34.1702 42.3126C32.7618 41.0303 31.671 40.1036 30.792 39.3601C27.5621 36.6339 27.5091 36.5046 27.7104 32.0974C27.7739 30.675 27.8692 28.7354 27.8692 26.063C27.8692 25.8798 27.9751 25.7182 28.1445 25.6536C28.2716 25.6104 28.3881 25.5458 28.5046 25.4811L39.0522 19.339C39.5711 19.0373 39.9206 18.574 40.0371 18.0244C40.143 17.5287 40.0371 17.0115 39.73 16.5805C39.0522 15.6215 37.6437 15.3413 36.5742 15.9555L27.6574 21.1601C27.4986 21.2571 27.2973 21.2356 27.1597 21.1062C25.4865 19.5653 21.7588 19.3714 19.6302 20.7183C19.4925 20.8045 19.3337 20.8045 19.196 20.7291L9.71799 15.2012C9.33675 14.9749 8.91315 14.8672 8.48955 14.8672Z" fill="white"/>
<path d="M23.1459 17.3988C20.3184 17.3988 18.0098 15.0497 18.0098 12.1726C18.0098 9.28479 20.3184 6.94648 23.1459 6.94648C25.9734 6.94648 28.282 9.29556 28.282 12.1726C28.282 15.0605 25.9734 17.3988 23.1459 17.3988ZM23.1459 7.80853C20.7843 7.80853 18.857 9.76969 18.857 12.1726C18.857 14.5756 20.7843 16.5368 23.1459 16.5368C25.5075 16.5368 27.4348 14.5756 27.4348 12.1726C27.4348 9.76969 25.5075 7.80853 23.1459 7.80853Z" fill="white"/>
<path d="M45.5743 4.98662H42.2703C42.0373 4.98662 41.8467 4.79266 41.8467 4.5556C41.8467 4.31853 42.0373 4.12457 42.2703 4.12457H45.5743C45.8073 4.12457 45.9979 4.31853 45.9979 4.5556C45.9979 4.79266 45.8073 4.98662 45.5743 4.98662Z" fill="white"/>
<path d="M37.3474 4.98662H8.94508C8.7121 4.98662 8.52148 4.79266 8.52148 4.5556C8.52148 4.31853 8.7121 4.12457 8.94508 4.12457H37.3474C37.5804 4.12457 37.771 4.31853 37.771 4.5556C37.771 4.79266 37.5804 4.98662 37.3474 4.98662Z" fill="white"/>
<path d="M4.01933 4.98662H0.725845C0.492866 4.98662 0.302246 4.79266 0.302246 4.5556C0.302246 4.31853 0.492866 4.12457 0.725845 4.12457H4.02992C4.2629 4.12457 4.45351 4.31853 4.45351 4.5556C4.45351 4.79266 4.25231 4.98662 4.01933 4.98662Z" fill="white"/>
<path d="M8.94346 9.07001H6.48659C6.25361 9.07001 6.06299 8.87605 6.06299 8.63899V1.11761C6.06299 0.880545 6.25361 0.686584 6.48659 0.686584H8.94346C9.17644 0.686584 9.36706 0.880545 9.36706 1.11761V8.63899C9.36706 8.87605 9.17644 9.07001 8.94346 9.07001ZM6.91019 8.20796H8.51986V1.54863H6.91019V8.20796Z" fill="white"/>
<path d="M6.48823 7.13015H4.02077C3.78779 7.13015 3.59717 6.93619 3.59717 6.69912V3.04619C3.59717 2.80913 3.78779 2.61517 4.02077 2.61517H6.47764C6.71062 2.61517 6.90124 2.80913 6.90124 3.04619V6.69912C6.91183 6.93619 6.72121 7.13015 6.48823 7.13015ZM4.44437 6.2681H6.05404V3.47721H4.44437V6.2681Z" fill="white"/>
<path d="M39.8028 9.07001H37.346C37.113 9.07001 36.9224 8.87605 36.9224 8.63899V1.11761C36.9224 0.880545 37.113 0.686584 37.346 0.686584H39.8028C40.0358 0.686584 40.2264 0.880545 40.2264 1.11761V8.63899C40.2264 8.87605 40.0358 9.07001 39.8028 9.07001ZM37.7696 8.20796H39.3792V1.54863H37.7696V8.20796Z" fill="white"/>
<path d="M42.2711 7.13015H39.8142C39.5812 7.13015 39.3906 6.93619 39.3906 6.69912V3.04619C39.3906 2.80913 39.5812 2.61517 39.8142 2.61517H42.2711C42.5041 2.61517 42.6947 2.80913 42.6947 3.04619V6.69912C42.6947 6.93619 42.5041 7.13015 42.2711 7.13015ZM40.2272 6.2681H41.8369V3.47721H40.2272V6.2681Z" fill="white"/>
<path d="M41.9195 53.2718H4.36745C4.13447 53.2718 3.94385 53.0778 3.94385 52.8408C3.94385 52.6037 4.13447 52.4098 4.36745 52.4098H41.9301C42.163 52.4098 42.3537 52.6037 42.3537 52.8408C42.3537 53.0778 42.163 53.2718 41.9195 53.2718Z" fill="white"/>
</svg>
