<svg width="46" height="60" viewBox="0 0 46 60" fill="none" xmlns="http://www.w3.org/2000/svg">
<path d="M45.8474 12.1054C45.5741 11.2193 44.7753 10.6828 43.6563 10.6331C43.4301 10.6472 43.2105 10.7158 43.0159 10.8333C42.8213 10.9507 42.6573 11.1136 42.5377 11.3083C42.5177 11.3325 42.4986 11.3565 42.479 11.3798C41.2288 11.8742 41.3982 13.6463 41.5076 14.4311C41.0523 15.2449 39.9612 16.1762 38.8659 17.0328C37.8925 14.8033 36.9722 12.7828 36.2684 11.8109C36.2572 11.7951 36.2449 11.7802 36.2316 11.7661C36.1883 11.7191 36.145 11.6762 36.1018 11.6336L36.0473 11.5795C35.9678 11.4991 35.8628 11.4497 35.7508 11.44C35.6388 11.4303 35.527 11.4609 35.4352 11.5265C33.0784 13.2103 28.9811 13.0187 27.4645 11.1548C27.4013 11.0772 27.3158 11.0215 27.2198 10.9955C27.1238 10.9696 27.0222 10.9745 26.9292 11.0098C26.6215 11.1263 19.3677 13.8789 16.8954 15.1788C16.3458 15.4683 15.8819 15.9001 15.5511 16.4302C14.5384 18.0688 12.7958 21.0119 12.4099 21.755C12.0062 22.1657 11.6945 22.6594 11.496 23.2026C11.2975 23.7458 11.2168 24.3258 11.2595 24.9033C11.2843 25.0515 11.3529 25.1886 11.4564 25.2965C12.0308 25.9051 12.7747 26.3226 13.5893 26.4935C13.8706 26.5542 14.1631 26.5335 14.4332 26.4336C14.7034 26.3337 14.9401 26.1587 15.1163 25.9288L15.6305 25.2635C16.5449 24.5636 16.1628 23.1522 15.9149 22.4163C16.3669 21.6903 17.752 19.6124 18.3734 18.732C20.5934 17.972 22.8497 17.3249 25.1338 16.7932C25.1157 17.0962 25.0826 17.398 25.0346 17.6976C25.0141 17.8337 24.9997 17.9384 24.996 17.9982C24.9762 18.9072 25.0474 19.8158 25.2083 20.7103C25.2795 21.195 25.3535 21.6962 25.3931 22.195C25.5229 23.2976 25.3444 24.4149 24.8778 25.4201C21.4517 26.6877 19.8718 29.1166 20.1795 32.6439C18.7593 34.6566 17.5499 37.191 16.3871 40.5836C16.2955 40.7763 16.1561 40.9416 15.9825 41.0636C15.8089 41.1855 15.607 41.2599 15.3966 41.2795C12.7484 41.965 11.1168 42.6688 10.075 43.593C8.59849 45.2167 6.98624 46.7086 5.25621 48.052C5.17912 48.046 5.10167 48.0463 5.02463 48.053C4.95309 48.0622 4.88085 48.0646 4.80887 48.0601C4.04774 47.6937 3.21041 47.5186 2.36804 47.5497C2.06614 47.583 1.77933 47.7005 1.53967 47.8892C1.3 48.0778 1.11692 48.3301 1.01089 48.618C0.629265 49.4164 0.556865 50.3304 0.807934 51.1801C0.0802727 53.3115 -0.0200731 55.6108 0.519074 57.7987C0.553657 57.9506 0.60568 58.0979 0.674086 58.2375C0.860097 58.6183 1.17415 58.9196 1.55993 59.0873C1.75554 59.1747 1.96682 59.2206 2.18067 59.222C2.48896 59.22 2.78898 59.1209 3.03904 58.9386C3.2572 58.7755 3.4331 58.5614 3.55173 58.3146C3.67036 58.0678 3.72819 57.7957 3.72029 57.5214L3.704 56.4127C4.36428 55.0282 5.2984 53.7955 6.44856 52.7908C6.53739 52.7057 6.60469 52.6002 6.64476 52.4833C10.4441 50.1602 14.3865 48.0853 18.4479 46.2715C18.4742 46.2603 18.4995 46.2465 18.5233 46.2305L18.6392 46.1528C18.8338 46.0224 19.0218 45.8967 19.2159 45.7644C19.2391 45.7485 19.2609 45.7307 19.2811 45.7112L20.1246 44.8896C22.9292 42.175 25.5849 39.6048 27.0097 36.9584C27.4343 37.0601 27.8574 37.1703 28.2805 37.28C29.6298 37.6763 31.0133 37.9423 32.4123 38.0742L32.6497 38.0902C33.4429 38.143 34.1923 38.1933 34.9511 38.3124C35.0265 38.3242 35.364 38.4108 35.6619 38.4871C36.1739 38.6185 36.5691 38.7183 36.8782 38.7894C35.7584 40.4062 35.0395 42.2718 34.7821 44.2286C34.4356 45.9252 33.7741 47.5399 32.8325 48.9871C32.7331 49.0293 32.6448 49.0944 32.5747 49.1773C32.5407 49.2154 32.5043 49.2513 32.4657 49.2846C31.8037 49.803 31.275 50.4751 30.9245 51.2441C30.8464 51.4494 30.814 51.6696 30.8297 51.889C30.8454 52.1084 30.9087 52.3216 31.0153 52.5134C31.5489 53.3531 32.3632 53.9709 33.3097 54.254C35.1577 56.2333 37.0793 57.4818 39.0316 57.9673C39.3085 58.0378 39.5979 58.0418 39.8766 57.9789C40.1553 57.916 40.4155 57.788 40.6366 57.6052C40.839 57.4407 40.9946 57.2248 41.0876 56.9795C41.1805 56.7342 41.2073 56.4684 41.1654 56.2092C41.1218 55.9378 41.0136 55.6813 40.85 55.4617C40.6864 55.2421 40.4724 55.0661 40.2265 54.9489L39.2392 54.4602C38.3185 53.2433 37.6544 51.8485 37.2878 50.3618C37.2503 50.2201 37.174 50.0919 37.0676 49.9922C37.1165 49.7467 37.1971 49.5088 37.3074 49.2846C39.659 45.3114 42.054 41.1829 43.2396 38.1782C43.2471 38.1561 43.255 38.1288 43.2643 38.0906C43.2707 38.0658 43.2751 38.0404 43.2773 38.0148C43.4314 36.3002 43.0269 35.0794 42.041 34.2823C42.0264 34.2702 42.011 34.2592 41.9949 34.2493L41.0565 33.6603C37.994 31.7314 35.0916 29.9033 31.7447 29.1345C32.9639 26.7074 33.85 24.1234 34.3785 21.454C34.601 21.4676 34.824 21.4355 35.0339 21.3596C35.2438 21.2837 35.4364 21.1656 35.5999 21.0123C35.7704 20.8598 35.9096 20.6749 36.0096 20.4681C36.4118 20.8781 36.8585 21.2409 37.3414 21.5493C38.5973 22.3151 39.3835 21.8407 40.2139 21.1912C41.0732 20.4917 41.8375 19.6806 42.4869 18.7788C42.8871 18.2478 43.2585 17.6952 43.5995 17.1235C43.7494 16.8782 43.8909 16.6301 44.0324 16.3815L44.1497 16.176C44.1925 16.0969 44.2423 15.9825 44.2954 15.8565C44.3528 15.7081 44.4201 15.5639 44.497 15.4248C45.6109 14.6089 46.1792 13.2143 45.8474 12.1054ZM2.78926 56.1203C2.76193 56.1835 2.74828 56.2519 2.74922 56.3208L2.76691 57.5336C2.77293 57.6514 2.7509 57.7689 2.70266 57.8762C2.65442 57.9835 2.58139 58.0776 2.48971 58.1504C2.41082 58.2115 2.31633 58.2485 2.21735 58.2572C2.11837 58.2659 2.01899 58.2458 1.93089 58.1994C1.75359 58.1202 1.60989 57.9798 1.52544 57.8034C1.49097 57.7325 1.4648 57.6578 1.44747 57.5807C0.938751 55.5277 1.04447 53.3681 1.75121 51.3759C1.78309 51.2879 1.78892 51.1923 1.76797 51.101C1.64377 50.7511 1.59209 50.3791 1.61615 50.0081C1.64022 49.6371 1.73951 49.2752 1.90785 48.9447C1.9518 48.8274 2.02691 48.7247 2.12489 48.6479C2.22288 48.571 2.33994 48.523 2.46317 48.5092C2.52717 48.5035 2.59282 48.5002 2.66053 48.5002C3.27948 48.5341 3.88626 48.6877 4.44804 48.9527C4.46485 48.9596 4.48184 48.962 4.49874 48.9677C4.66235 50.143 5.00705 51.285 5.5203 52.3524C4.36997 53.411 3.4413 54.6922 2.78926 56.1203ZM38.5689 55.1542C38.612 55.2069 38.6658 55.2498 38.7267 55.2799L39.8061 55.8142C39.9134 55.8628 40.0073 55.9371 40.0798 56.0306C40.1523 56.1241 40.2012 56.2341 40.2223 56.351C40.2395 56.4478 40.2297 56.5476 40.194 56.6391C40.1583 56.7307 40.0982 56.8104 40.0203 56.8693C39.9121 56.9529 39.7867 57.0107 39.6534 57.0383C39.52 57.0659 39.3823 57.0627 39.2503 57.0289C37.4577 56.5826 35.6623 55.3943 33.9143 53.4965C33.851 53.4274 33.7689 53.3787 33.6783 53.3566C32.9435 53.1545 32.3012 52.6996 31.862 52.0704C31.8178 52.001 31.7902 51.9221 31.7814 51.8401C31.7726 51.758 31.7828 51.675 31.8112 51.5977C32.1078 50.9757 32.5455 50.4334 33.0886 50.0148C33.123 49.9847 33.1523 49.9574 33.1789 49.9315C33.1891 49.9298 33.1976 49.9226 33.2077 49.9203C34.193 50.4514 35.2898 50.7359 36.4062 50.7502C36.8169 52.3541 37.5535 53.854 38.5689 55.1542H38.5689ZM43.9365 14.6447C43.695 14.872 43.5165 15.1593 43.4188 15.478C43.3802 15.5693 43.3458 15.6534 43.3197 15.7019L43.2066 15.9001C43.0697 16.1404 42.9329 16.3803 42.7862 16.6209C42.4615 17.1652 42.1078 17.6913 41.7268 18.1969C41.1271 19.0315 40.4214 19.7826 39.6279 20.4309C38.8551 21.0349 38.526 21.1451 37.8371 20.7256C37.112 20.228 36.4594 19.63 35.8983 18.9492C35.8199 18.8619 35.7125 18.8067 35.5965 18.7941C35.4805 18.7815 35.364 18.8123 35.269 18.8808C35.174 18.9493 35.1071 19.0506 35.081 19.1656C35.0549 19.2806 35.0715 19.4013 35.1275 19.5048C35.1955 19.6351 35.2164 19.7853 35.1865 19.9295C35.1565 20.0737 35.0777 20.2027 34.9636 20.2943C34.8789 20.3881 34.7668 20.4519 34.6436 20.4764C34.5205 20.5009 34.3928 20.4849 34.2793 20.4306C34.2134 20.384 34.1369 20.3551 34.0569 20.3464C33.9769 20.3378 33.8961 20.3497 33.8219 20.3811C33.7477 20.4126 33.6826 20.4625 33.6326 20.5262C33.5826 20.5899 33.5493 20.6654 33.5359 20.7456C33.0058 23.7197 32.0201 26.592 30.6145 29.2588C30.5805 29.3257 30.5625 29.3997 30.5619 29.4749C30.5612 29.5501 30.578 29.6244 30.6108 29.6919C30.6435 29.7594 30.6915 29.8182 30.7507 29.8637C30.8099 29.9091 30.8789 29.9399 30.952 29.9537C34.3864 30.5949 37.3814 32.4814 40.5533 34.4791L41.467 35.0525C42.169 35.6335 42.4446 36.5332 42.3319 37.8783C41.1752 40.7926 38.8119 44.8656 36.4765 48.8124C36.3226 49.1171 36.2093 49.4411 36.1396 49.776C35.3412 49.7272 34.5603 49.5182 33.8426 49.161C34.7482 47.6968 35.3851 46.0793 35.7228 44.3863C35.9742 42.3209 36.8046 40.3713 38.1159 38.7677C38.1229 38.7597 38.1304 38.7517 38.1373 38.7427C38.2025 38.6656 38.2419 38.5695 38.25 38.4684C38.258 38.3672 38.2342 38.266 38.1821 38.1793C38.1299 38.0926 38.052 38.0248 37.9594 37.9856C37.8669 37.9463 37.7645 37.9376 37.6667 37.9607C37.3837 37.9339 36.3876 37.6787 35.8965 37.5525C35.4505 37.4381 35.2126 37.3779 35.0981 37.3595C34.297 37.2338 33.4917 37.1801 32.7125 37.1278L32.4737 37.1118C31.1341 36.9825 29.8096 36.7262 28.5174 36.3463C27.9667 36.2032 27.4161 36.0601 26.8621 35.9348C26.7585 35.9112 26.65 35.9233 26.554 35.9693C26.458 36.0153 26.38 36.0925 26.3324 36.1886C25.0318 38.8058 22.3282 41.4226 19.4631 44.1951L18.6489 44.988C18.4692 45.1104 18.2942 45.2276 18.1131 45.3486L18.0331 45.4023C13.9744 47.2173 10.0337 49.2907 6.23451 51.6102C5.8714 50.7927 5.61506 49.9309 5.47198 49.0466C5.52375 49.0324 5.57277 49.0094 5.61692 48.9786C7.46224 47.5783 9.1753 46.008 10.7341 44.2879C11.6139 43.5101 13.1705 42.851 15.6172 42.2173C15.9829 42.1661 16.329 42.0189 16.6212 41.7904C16.9133 41.562 17.1412 41.2602 17.2822 40.915C18.4478 37.5149 19.6474 35.0196 21.0569 33.062C21.1264 32.9653 21.1579 32.846 21.1454 32.7272C20.8028 29.4546 22.1439 27.4019 25.367 26.2673C25.4763 26.2288 25.568 26.1513 25.6248 26.0493C26.2524 24.8432 26.5031 23.4728 26.3436 22.1194C26.3012 21.5862 26.2249 21.0686 26.1508 20.5681C26.0002 19.7387 25.9322 18.8962 25.9479 18.0531C25.9507 18.0131 25.9628 17.938 25.9772 17.8412C26.1265 17.2363 26.1249 16.6033 25.9726 15.9992C25.9268 15.8977 25.8476 15.8155 25.7485 15.7665C25.6494 15.7175 25.5366 15.7048 25.4293 15.7306C22.8875 16.3084 20.3783 17.024 17.9125 17.8744C17.8221 17.9071 17.7436 17.9667 17.6872 18.0453C17.0849 18.8864 15.2815 21.5863 14.9773 22.1192C14.9428 22.1797 14.9217 22.2471 14.9155 22.3167C14.9093 22.3863 14.918 22.4564 14.9412 22.5222C15.3283 23.6194 15.3583 24.2889 15.0306 24.5121C14.9891 24.5405 14.9522 24.5753 14.9212 24.6152L14.3661 25.3336C14.3023 25.4206 14.2154 25.4874 14.1155 25.5264C14.0155 25.5653 13.9067 25.5747 13.8017 25.5535C13.1943 25.4281 12.6364 25.1259 12.1965 24.6842C12.1884 24.2501 12.2697 23.8191 12.435 23.4185C12.6004 23.0179 12.8463 22.6564 13.157 22.357C13.1864 22.3244 13.2112 22.288 13.2308 22.2487C13.528 21.6517 15.3495 18.5757 16.3592 16.942C16.5997 16.5571 16.9369 16.2437 17.3362 16.0335C19.4761 14.9085 25.5364 12.5729 26.9613 12.0279C28.8372 13.9387 32.9466 14.187 35.6199 12.5554C36.6122 14.3026 37.4865 16.1156 38.237 17.982C38.266 18.0487 38.3095 18.1079 38.3644 18.1551C38.4193 18.2024 38.484 18.2364 38.5537 18.2548C38.6235 18.2731 38.6964 18.2752 38.7671 18.2609C38.8377 18.2467 38.9043 18.2164 38.9617 18.1724C40.4113 17.0608 41.8734 15.8791 42.4297 14.7287C42.4719 14.641 42.487 14.5425 42.473 14.446C42.277 13.1126 42.4124 12.3968 42.8868 12.2569C42.9692 12.2326 43.0437 12.1863 43.1023 12.1228C43.1586 12.0618 43.2154 11.9926 43.2736 11.921C43.3681 11.7944 43.483 11.6846 43.6134 11.5964C43.8881 11.5714 44.1637 11.6344 44.401 11.7765C44.6384 11.9186 44.8255 12.1327 44.9359 12.3883C45.1459 13.0893 44.7073 14.0802 43.9365 14.6447ZM37.4163 38.1123L37.4196 38.1086L37.4173 38.1114L37.4163 38.1123Z" fill="white"/>
<path d="M30.27 6.86899C30.3309 6.85415 30.3882 6.82733 30.4388 6.79007C30.4895 6.75281 30.5323 6.70583 30.565 6.65182C30.5976 6.5978 30.6194 6.53781 30.6292 6.47527C30.6389 6.41272 30.6364 6.34886 30.6217 6.28731C30.607 6.22576 30.5805 6.16773 30.5437 6.11655C30.5068 6.06536 30.4604 6.02202 30.407 5.98899C30.3536 5.95596 30.2943 5.93389 30.2324 5.92405C30.1706 5.9142 30.1074 5.91677 30.0466 5.93161C28.8009 6.23645 27.6437 5.97233 27.4109 5.33274C27.3653 5.11878 27.3741 4.89659 27.4366 4.68703C27.4992 4.47748 27.6134 4.28744 27.7684 4.13477C28.2562 3.57247 28.8812 3.14927 29.5811 2.90737C29.8652 2.80101 30.1583 2.72096 30.4567 2.6682C30.5633 2.6496 30.6605 2.5949 30.7323 2.51307C30.8041 2.43124 30.8463 2.32715 30.8519 2.21788L30.8603 2.0538C31.2643 1.39891 32.4755 1.18257 33.5308 1.26473C34.5413 1.34794 35.4793 1.82869 36.1432 2.6037C36.1483 2.61029 36.1553 2.61877 36.1627 2.62748C36.692 3.53897 37.2105 4.70233 36.6273 5.69503C36.5891 5.75979 36.5666 5.8327 36.5614 5.9079C36.5562 5.98309 36.5686 6.05846 36.5975 6.12794L36.9629 7.00764L36.8689 6.99658C36.7441 6.98611 36.6201 7.02405 36.5219 7.1027C36.4238 7.18135 36.3589 7.29482 36.3405 7.42007L36.334 7.46339C36.3268 7.48823 36.3148 7.51137 36.2986 7.53142C36.2374 7.60929 36.2015 7.70446 36.1959 7.80383C36.1903 7.90319 36.2153 8.00187 36.2674 8.08626C36.1702 8.1798 36.1041 8.30165 36.0785 8.4349C36.0513 8.56019 36.0577 8.69055 36.0971 8.81248C35.8326 8.85764 35.5609 8.80624 35.3304 8.66747C35.2783 8.63182 35.2198 8.60694 35.1582 8.59426C35.0966 8.58159 35.0331 8.58137 34.9714 8.59362C34.9097 8.60587 34.851 8.63035 34.7986 8.66564C34.7463 8.70094 34.7014 8.74636 34.6666 8.79927C34.6317 8.85219 34.6075 8.91157 34.5954 8.97398C34.5833 9.03639 34.5836 9.10061 34.5961 9.16293C34.6087 9.22525 34.6333 9.28444 34.6685 9.3371C34.7038 9.38975 34.749 9.43483 34.8016 9.46973C35.1293 9.68586 35.5137 9.7974 35.9048 9.78988C36.1372 9.7882 36.3685 9.75833 36.5938 9.7009C36.7106 9.67991 36.8202 9.62884 36.9119 9.55261C37.0037 9.47637 37.0744 9.37755 37.1174 9.26563C37.1555 9.17033 37.173 9.06786 37.1686 8.96515C37.1641 8.86245 37.138 8.7619 37.0918 8.6703C37.1823 8.60375 37.2555 8.51595 37.3049 8.41444C37.3544 8.31294 37.3787 8.20079 37.3758 8.08767C37.3759 8.06472 37.3748 8.04177 37.3725 8.01893C37.4763 8.01798 37.5783 7.99234 37.6704 7.94408C37.7625 7.89583 37.8421 7.82631 37.9027 7.74116C37.9815 7.64071 38.0322 7.52072 38.0496 7.39369C38.067 7.26667 38.0503 7.13726 38.0014 7.01896L37.5643 5.96646C38.2304 4.5724 37.5485 3.10207 36.9484 2.07806C36.9373 2.06088 36.9112 2.0291 36.8889 2.00273C36.0592 1.01855 34.8775 0.407402 33.6029 0.30335C32.2306 0.196949 30.5507 0.509331 29.9627 1.70306C29.9485 1.73237 29.9371 1.76305 29.9288 1.79464C29.6992 1.85057 29.473 1.92005 29.2515 2.00273C28.3915 2.30456 27.6251 2.82981 27.0292 3.5258C26.7633 3.80416 26.5756 4.14921 26.4854 4.52538C26.3952 4.90156 26.4059 5.29524 26.5162 5.66587C26.9329 6.81132 28.476 7.30661 30.27 6.86899Z" fill="white"/>
</svg>
