<svg width="561" height="33" viewBox="0 0 561 33" fill="none" xmlns="http://www.w3.org/2000/svg">
<path fill-rule="evenodd" clip-rule="evenodd" d="M15.0686 21.1045C22.16 25.3276 30.9282 27.8682 39.9856 27.8682C46.094 27.8682 52.8137 26.5747 58.9924 23.8903C59.9258 23.4845 60.7064 24.516 59.7936 25.2093C54.2799 29.3689 46.2881 31.5883 39.4073 31.5883C29.7594 31.5883 21.0737 27.9359 14.5027 21.8612C13.9865 21.3835 14.449 20.7325 15.0686 21.1045ZM64.44 20.6903C65.043 21.4554 64.2831 26.7607 61.3218 29.2928C60.8675 29.6818 60.4338 29.4746 60.6362 28.9589C61.3011 27.2595 62.7921 23.4507 62.0858 22.5249C61.3837 21.6034 57.4271 22.0895 55.6511 22.3051C55.1101 22.3727 55.0275 21.8908 55.5148 21.5442C58.6661 19.2741 63.837 19.9293 64.44 20.6903ZM74.8396 2.47056C79.1969 2.47056 81.5552 6.3005 81.5552 11.1704C81.5552 15.8754 78.9491 19.6081 74.8396 19.6081C70.5608 19.6081 68.2315 15.7781 68.2315 11.0055C68.2315 6.20327 70.5898 2.47056 74.8396 2.47056ZM46.4864 2.3226C47.9154 2.3226 49.7822 2.71151 50.9097 3.81907C52.2673 5.11622 52.2122 6.82541 52.2033 8.69292L52.2025 13.6729C52.2025 15.0806 52.7724 15.6978 53.3093 16.4587C53.4952 16.7293 53.5365 17.0548 53.2969 17.2577C52.6981 17.7692 51.6325 18.7203 51.046 19.253L51.0419 19.2445C50.8478 19.4221 50.5669 19.4347 50.348 19.3164C49.3733 18.4878 49.1957 18.1032 48.6629 17.3126C47.0522 18.9951 45.9082 19.4982 43.8224 19.4982C41.3485 19.4982 39.428 17.9383 39.428 14.8143C39.428 12.3751 40.7166 10.7138 42.5586 9.90217C44.1529 9.18352 46.379 9.05671 48.0806 8.85802V8.46911C48.0806 7.75469 48.1343 6.90923 47.7213 6.29205C47.3661 5.73827 46.6805 5.50999 46.0734 5.50999C44.9541 5.50999 43.9587 6.09759 43.7151 7.31505C43.6655 7.5856 43.4714 7.85192 43.2029 7.86461L40.3573 7.55178C40.1177 7.49683 39.8493 7.29815 39.9195 6.92192C40.572 3.38789 43.6944 2.3226 46.4864 2.3226ZM7.98953 2.3226C9.41855 2.3226 11.2854 2.71151 12.4129 3.81907C13.8419 5.18449 13.7056 7.00646 13.7056 8.98907V13.6729C13.7056 15.0806 14.2756 15.6978 14.8125 16.4587C15.0025 16.7293 15.0438 17.0548 14.8042 17.2577C14.2054 17.7692 13.1398 18.7203 12.5533 19.253L12.5451 19.2445C12.3509 19.4221 12.0701 19.4347 11.8512 19.3164C10.8765 18.4878 10.703 18.1032 10.1661 17.3126C8.55535 18.9951 7.41544 19.4982 5.3256 19.4982C2.85579 19.4982 0.931152 17.9383 0.931152 14.8143C0.931152 12.3751 2.22388 10.7138 4.06178 9.90217C5.65601 9.18352 7.88214 9.05671 9.58375 8.85802V8.46911C9.58375 7.75469 9.63745 6.90923 9.22856 6.29205C8.86924 5.73827 8.18364 5.50999 7.58064 5.50999C6.46138 5.50999 5.46189 6.09759 5.21822 7.31505C5.16865 7.5856 4.97454 7.85192 4.71021 7.86461L1.86043 7.55178C1.62088 7.49683 1.35655 7.29815 1.42264 6.92192C2.07933 3.38789 5.19757 2.3226 7.98953 2.3226ZM32.7289 2.47056C33.9597 2.47056 35.3061 2.99052 36.128 4.15725C37.0573 5.45504 36.8673 7.34042 36.8673 8.9933L36.8632 18.7288C36.8632 19.0374 36.6113 19.2868 36.2974 19.2868H33.365C33.0718 19.2657 32.8363 19.0247 32.8363 18.7288V10.5532C32.8363 9.90217 32.8941 8.27888 32.7537 7.66169C32.5348 6.62601 31.8781 6.33432 31.0273 6.33432C30.317 6.33432 29.5735 6.82046 29.272 7.59829C29.0375 8.20326 29.0029 9.12534 28.9991 9.91699L28.9994 18.7288C28.9994 19.0374 28.7475 19.2868 28.4336 19.2868H25.5012C25.2039 19.2657 24.9726 19.0247 24.9726 18.7288L24.9685 10.5532C24.9685 8.83266 25.2452 6.3005 23.1595 6.3005C21.26 6.3005 21.137 8.30019 21.1314 10.0006L21.1316 18.7288C21.1316 19.0374 20.8796 19.2868 20.5657 19.2868H17.6292C17.3484 19.2657 17.1254 19.0501 17.1047 18.7753V3.34984C17.1047 3.04125 17.3566 2.79606 17.6705 2.79606H20.4088C20.6938 2.80873 20.9209 3.03279 20.9416 3.31179V5.32822H20.9953C21.7098 3.37943 23.0521 2.47056 24.8611 2.47056C26.699 2.47056 27.8471 3.37943 28.6732 5.32822C29.3835 3.37943 30.9984 2.47056 32.7289 2.47056ZM91.6162 2.47056C92.9337 2.47056 94.2182 2.9567 95.0442 4.2883C95.8124 5.52268 95.8124 7.59829 95.8124 9.09052V18.8007C95.7794 19.0712 95.5357 19.2868 95.2466 19.2868H92.3018C92.0333 19.2657 91.8103 19.0627 91.7814 18.8007V10.4221C91.7814 8.73543 91.9714 6.26668 89.9435 6.26668C89.229 6.26668 88.5723 6.75705 88.246 7.50106C87.833 8.44375 87.7793 9.38221 87.7793 10.4221V18.7288C87.7752 19.0374 87.5191 19.2868 87.2052 19.2868H84.2811C83.9879 19.2657 83.7524 19.0247 83.7524 18.7288L83.7483 3.29911C83.7731 3.01588 84.0168 2.79606 84.3141 2.79606H87.0359C87.292 2.80873 87.5026 2.98629 87.5604 3.22725V5.58608H87.6141C88.436 3.47666 89.5883 2.47056 91.6162 2.47056ZM65.9723 2.75379C66.282 2.75379 66.5298 2.98206 66.5298 3.31179V5.2014C66.5257 5.51845 66.2655 5.93272 65.8029 6.58796L60.8014 13.897C62.6599 13.8505 64.6217 14.1337 66.3068 15.106C66.6868 15.3258 66.79 15.6471 66.819 15.9641V18.3187C66.819 18.64 66.472 19.0162 66.1086 18.8218C63.139 17.2281 59.1948 17.0548 55.9113 18.8387C55.5768 19.0247 55.2257 18.6527 55.2257 18.3314V16.0952C55.2257 15.7359 55.2298 15.1229 55.5809 14.5776L61.3755 6.07223H56.3326C56.0228 6.07223 55.775 5.84818 55.775 5.51845V3.31179C55.775 2.97783 56.0228 2.75379 56.3202 2.75379H65.9723ZM48.0806 11.2676C45.9536 11.2676 43.7109 11.7326 43.7109 14.2943C43.7109 15.5921 44.3718 16.4714 45.4993 16.4714C46.3212 16.4714 47.0646 15.9515 47.5313 15.106C48.1095 14.0661 48.0806 13.0896 48.0806 11.9186V11.2676ZM9.58375 11.2676C7.46087 11.2676 5.21822 11.7326 5.21822 14.2943C5.21822 15.5921 5.8749 16.4714 7.00243 16.4714C7.82845 16.4714 8.56774 15.9515 9.03445 15.106C9.61266 14.0661 9.58375 13.0896 9.58375 11.9186V11.2676ZM74.8644 5.61991C72.7002 5.61991 72.5639 8.6382 72.5639 10.5194C72.5639 12.4047 72.535 16.4291 74.8396 16.4291C77.1153 16.4291 77.2227 13.1826 77.2227 11.2042C77.2227 9.90217 77.169 8.34652 76.7849 7.11214C76.4545 6.03841 75.7978 5.61991 74.8644 5.61991Z" fill="#747873"/>
<path d="M151.275 0.96167H152.122C155.06 1.02633 157.951 2.2217 160.027 4.33779C159.261 5.12933 158.478 5.88851 157.728 6.68006C156.562 5.61392 155.156 4.79008 153.623 4.49931C151.355 4.01472 148.911 4.45084 147.011 5.75935C144.934 7.13236 143.529 9.45852 143.226 11.9461C142.89 14.4015 143.577 16.986 145.158 18.8922C146.675 20.7499 148.991 21.9129 151.387 21.9936C153.623 22.1229 155.955 21.4283 157.584 19.8453C158.861 18.7307 159.452 17.0345 159.644 15.3868C156.993 15.3868 154.342 15.403 151.69 15.3868V12.0592H162.854C163.429 15.6291 162.599 19.6514 159.916 22.2036C158.127 24.0128 155.651 25.079 153.128 25.289C150.684 25.5313 148.161 25.0629 145.989 23.8675C143.385 22.4621 141.309 20.0876 140.287 17.293C139.329 14.7245 139.313 11.8169 140.207 9.23233C141.022 6.87388 142.587 4.79009 144.599 3.33631C146.532 1.89864 148.879 1.10709 151.275 0.96167Z" fill="#747873"/>
<path d="M215.32 1.80179H218.738V24.8691C217.604 24.8691 216.454 24.8853 215.32 24.853C215.336 17.18 215.32 9.49091 215.32 1.80179Z" fill="#747873"/>
<path d="M170.457 9.79786C172.565 9.39403 174.849 9.84633 176.59 11.1225C178.171 12.2532 179.273 14.0301 179.608 15.9685C180.04 18.2139 179.497 20.6692 178.059 22.4461C176.51 24.433 173.97 25.4992 171.495 25.3376C169.227 25.2084 167.023 24.0615 165.681 22.1876C164.164 20.12 163.797 17.277 164.627 14.8539C165.458 12.2532 167.805 10.2663 170.457 9.79786ZM170.936 12.867C170.073 13.0932 169.275 13.5939 168.7 14.3047C167.151 16.1785 167.247 19.2315 168.955 20.9762C169.93 21.9776 171.399 22.4461 172.757 22.1715C174.018 21.9453 175.12 21.0892 175.727 19.9584C176.781 18.0362 176.478 15.387 174.865 13.8847C173.827 12.9155 172.309 12.5117 170.936 12.867Z" fill="#747873"/>
<path d="M187.386 9.79772C189.798 9.32924 192.433 10.0077 194.238 11.72C197.177 14.3853 197.496 19.3768 194.989 22.446C193.472 24.3844 191.012 25.4506 188.584 25.3375C186.268 25.2728 183.984 24.1098 182.611 22.1875C181.062 20.0714 180.726 17.1638 181.605 14.6923C182.483 12.1723 184.783 10.25 187.386 9.79772ZM187.865 12.8669C187.003 13.0931 186.204 13.5938 185.63 14.2884C184.096 16.1299 184.16 19.1345 185.805 20.8953C186.779 21.9452 188.297 22.4622 189.702 22.1714C190.948 21.9291 192.066 21.0891 192.673 19.9584C193.711 18.0199 193.407 15.3707 191.778 13.8684C190.74 12.8992 189.223 12.5115 187.865 12.8669Z" fill="#747873"/>
<path d="M201.744 10.7345C203.581 9.57143 206.024 9.24836 208.005 10.2498C208.628 10.5245 209.139 10.9929 209.634 11.4614C209.651 11.0253 209.634 10.573 209.651 10.1207C210.72 10.1368 211.791 10.1207 212.877 10.1368V24.3842C212.86 26.5327 212.317 28.8103 210.784 30.3772C209.108 32.1056 206.536 32.6387 204.22 32.2834C201.744 31.9118 199.588 30.0864 198.63 27.7765C199.588 27.3081 200.595 26.9365 201.584 26.5004C202.144 27.8249 203.278 28.9557 204.699 29.2142C206.121 29.4726 207.765 29.1173 208.692 27.9219C209.682 26.6942 209.682 25.0142 209.634 23.512C208.899 24.2389 208.053 24.885 207.031 25.1273C204.811 25.7573 202.367 24.982 200.658 23.4635C198.933 21.9451 197.911 19.6028 198.007 17.2767C198.055 14.6436 199.524 12.1075 201.744 10.7345ZM205.05 12.8021C204.076 12.9636 203.166 13.5129 202.543 14.2721C201.041 16.0813 201.041 18.9728 202.559 20.7497C203.421 21.7997 204.811 22.3812 206.153 22.2359C207.414 22.1066 208.58 21.2989 209.203 20.1844C210.257 18.2944 210.082 15.7259 208.66 14.0783C207.782 13.0606 206.376 12.5598 205.05 12.8021Z" fill="#747873"/>
<path d="M222.842 11.5584C224.76 9.74921 227.714 9.13538 230.174 10.0885C232.506 10.9769 233.991 13.2222 234.741 15.5322C231.275 16.986 227.825 18.4237 224.36 19.8775C224.839 20.7983 225.574 21.6383 226.564 21.9775C227.954 22.4782 229.614 22.3005 230.78 21.3636C231.243 21.0083 231.611 20.5398 231.962 20.0875C232.84 20.6852 233.719 21.2667 234.598 21.8644C233.352 23.7544 231.26 25.079 229.008 25.289C226.516 25.5959 223.865 24.6267 222.252 22.6559C219.601 19.5544 219.856 14.353 222.842 11.5584ZM224.551 14.5468C224.008 15.3384 223.785 16.3075 223.801 17.2606C226.117 16.2914 228.433 15.3222 230.749 14.3368C230.365 13.4322 229.439 12.883 228.497 12.7376C226.98 12.463 225.398 13.2869 224.551 14.5468Z" fill="#747873"/>
<path d="M293.084 17.3247V32.1408H278.481V17.3247H293.084ZM309.211 17.3247V32.1408H294.608V17.3247H309.211ZM353.663 12.1523C354.235 12.1523 354.83 12.2248 355.402 12.3457C356.021 12.4665 356.474 12.6599 356.879 12.8291L356.903 12.8532V15.9228L356.784 15.8261C355.855 15.1494 354.83 14.811 353.83 14.811C352.639 14.811 351.662 15.2219 350.923 16.0195C350.185 16.8171 349.828 17.9047 349.828 19.2824C349.828 20.6118 350.185 21.6752 350.9 22.4487C351.59 23.2463 352.567 23.6088 353.806 23.6088C354.235 23.6088 354.735 23.5122 355.283 23.3188C355.807 23.1496 356.331 22.8596 356.784 22.5212L356.903 22.4245V25.3249L356.879 25.3491C355.878 25.9291 354.616 26.2433 353.139 26.2433C351.853 26.2433 350.709 25.9533 349.732 25.3974C348.708 24.8415 347.946 24.0197 347.398 23.0046C346.85 21.9653 346.564 20.8293 346.564 19.5483C346.564 18.0739 346.85 16.7929 347.422 15.6811C347.97 14.5935 348.827 13.7234 349.899 13.0949C350.971 12.4665 352.257 12.1523 353.663 12.1523ZM374.055 12.1765C376.103 12.1765 377.747 12.7807 378.867 14.0134C380.034 15.2461 380.606 16.938 380.606 19.0649C380.606 21.216 380.01 22.9562 378.771 24.2614C377.556 25.5666 375.865 26.2192 373.745 26.2192C371.72 26.2192 370.1 25.5908 368.909 24.3823C367.718 23.1496 367.099 21.4577 367.099 19.3791C367.099 17.1555 367.694 15.3911 368.933 14.1101C370.148 12.8291 371.887 12.1765 374.055 12.1765ZM399.234 12.1765C401.283 12.1765 402.927 12.7807 404.046 14.0134C405.214 15.2461 405.785 16.938 405.785 19.0649C405.785 21.216 405.19 22.9562 403.951 24.2614C402.736 25.5666 401.045 26.2192 398.925 26.2192C396.9 26.2192 395.28 25.5908 394.089 24.3823C392.898 23.1496 392.278 21.4577 392.278 19.3791C392.278 17.1555 392.898 15.3911 394.113 14.1101C395.328 12.8291 397.067 12.1765 399.234 12.1765ZM387.228 12.1523C387.657 12.1523 388.181 12.2007 388.753 12.2973C389.324 12.4182 389.801 12.5632 390.158 12.7082L390.23 12.7324V15.6811L390.111 15.5844C389.729 15.2944 389.253 15.0769 388.729 14.9319C388.205 14.7868 387.657 14.6902 387.133 14.6902C386.537 14.6902 386.132 14.811 385.775 15.0527C385.418 15.2944 385.275 15.6569 385.275 16.0195C385.275 16.4546 385.394 16.7929 385.632 17.0346C385.918 17.3005 386.537 17.6147 387.514 18.0256C388.753 18.509 389.61 19.1132 390.301 19.6933C390.825 20.2976 391.063 21.0952 391.063 21.9895C391.063 23.2705 390.563 24.2614 389.61 25.0349C388.681 25.8325 387.371 26.195 385.775 26.195C385.251 26.195 384.655 26.0983 383.988 25.9775C383.321 25.8083 382.773 25.6633 382.321 25.4457L382.249 25.4216V22.352L382.368 22.4487C382.869 22.8112 383.464 23.1254 384.107 23.343C384.751 23.5605 385.298 23.6572 385.823 23.6572C387.18 23.6572 387.847 23.2221 387.847 22.3278C387.847 22.0136 387.776 21.7719 387.657 21.5786C387.49 21.4094 387.276 21.1918 386.942 20.9985C386.609 20.8051 386.061 20.5634 385.346 20.2492C384.489 19.8867 383.869 19.5 383.44 19.1616C383.012 18.799 382.702 18.364 382.487 17.9047C382.273 17.4455 382.178 16.8896 382.178 16.2612C382.178 15.0769 382.63 14.0617 383.583 13.3125C384.536 12.5149 385.751 12.1523 387.228 12.1523ZM413.099 5.81981C413.837 5.81981 414.409 5.91649 414.838 6.06151L414.909 6.08568V8.81688L414.79 8.74437C414.29 8.52684 413.837 8.43016 413.408 8.43016C412.789 8.43016 412.289 8.62352 411.955 9.01024C411.622 9.39695 411.431 10.0012 411.431 10.7746V12.4665H416.1V9.44529L416.172 9.42112L419.126 8.52684L419.221 8.50267V12.4665H422.342V15.0527H419.173V21.3852C419.173 22.207 419.316 22.7629 419.602 23.1013C419.912 23.4638 420.341 23.6088 420.96 23.6088C421.127 23.6088 421.341 23.5847 421.579 23.5122C421.865 23.4396 422.032 23.343 422.222 23.2221L422.342 23.1254V25.7116L422.318 25.7358C422.127 25.8325 421.794 25.9533 421.341 26.05C420.912 26.1225 420.46 26.195 420.031 26.195C417.41 26.195 416.1 24.769 416.1 21.9411V15.0527H411.431V25.8566H408.31V15.0285H406.143V12.4665H408.31V10.6054C408.31 9.66282 408.525 8.84105 408.93 8.11595C409.335 7.36668 409.883 6.81078 410.621 6.39989C411.36 6.03734 412.17 5.81981 413.099 5.81981ZM338.322 7.1975V25.8566H335.153V14.0134C335.177 13.2641 335.225 12.0315 335.296 10.6538H335.225C335.106 11.1855 334.987 11.8139 334.867 12.1281L329.388 25.8808H327.292L321.765 12.249C321.646 11.9106 321.48 11.3789 321.337 10.6538H321.265C321.289 10.9438 321.337 11.3305 321.36 11.8381C321.377 12.5632 321.382 13.1896 321.384 13.7527L321.384 25.9291H318.407V7.24584H322.909L327.506 18.9682C327.935 19.9834 328.197 20.8293 328.34 21.3852H328.412L329.269 18.9199L333.986 7.1975H338.322ZM344.42 12.4665V25.8566H341.323V12.4665H344.42ZM365.622 12.249C366.146 12.249 366.574 12.3215 366.789 12.4665L366.86 12.4907V15.6328L366.741 15.5361C366.574 15.4153 366.336 15.3186 366.003 15.2219C365.645 15.1736 365.36 15.101 365.074 15.101C364.264 15.101 363.597 15.4636 363.073 16.1887C362.549 16.8896 362.31 17.8564 362.31 19.0166V25.8566H359.213V12.4665H362.31V14.811H362.334C362.644 14.0617 363.001 13.4333 363.525 12.9983C364.145 12.4907 364.859 12.249 365.622 12.249ZM373.912 14.7627C372.792 14.7627 371.911 15.1494 371.267 15.9228C370.648 16.6963 370.314 17.7839 370.314 19.2099C370.314 20.5876 370.624 21.6752 371.267 22.4245C371.911 23.2221 372.816 23.5847 373.935 23.5847C375.055 23.5847 375.96 23.2221 376.532 22.4729C377.128 21.7236 377.39 20.5876 377.437 19.1374C377.437 17.7114 377.104 16.6237 376.484 15.8745C375.865 15.1252 375.007 14.7627 373.912 14.7627ZM399.068 14.7627C397.948 14.7627 397.067 15.1494 396.423 15.9228C395.804 16.6963 395.47 17.7839 395.47 19.2099C395.47 20.5876 395.78 21.6752 396.423 22.4245C397.067 23.2221 397.948 23.5847 399.091 23.5847C400.211 23.5847 401.116 23.2221 401.688 22.4729C402.284 21.7236 402.593 20.5876 402.593 19.1374C402.593 17.7114 402.26 16.6237 401.64 15.8745C401.021 15.1252 400.14 14.7627 399.068 14.7627ZM293.084 0.96167V15.7778H278.481V0.96167H293.084ZM309.211 0.96167V15.7778H294.608V0.96167H309.211ZM342.895 6.81078C343.443 6.81078 343.896 7.00414 344.206 7.34251C344.563 7.70506 344.754 8.14012 344.754 8.64769C344.754 9.15526 344.563 9.59031 344.206 9.92869C343.872 10.2429 343.42 10.4363 342.895 10.4363C342.371 10.4363 341.943 10.2671 341.585 9.92869C341.228 9.59031 341.037 9.15526 341.037 8.64769C341.037 8.11595 341.228 7.68089 341.585 7.34251C341.943 7.00414 342.371 6.81078 342.895 6.81078Z" fill="#747873"/>
<path d="M469.888 3.68381L475.096 18.3581V3.68381H479.128V27.8795C477.701 28.1323 476.248 28.208 474.746 28.4099L470.163 14.8725V28.9909C468.736 29.1424 467.434 29.3444 466.082 29.5465V3.68381H469.888ZM551.146 3.68381L553.776 10.4778L556.581 3.68381H560.963L555.879 15.9838L560.963 29.5465C559.46 29.3444 557.958 29.0666 556.455 28.814L553.576 21.3382L550.646 28.208C549.193 27.9552 547.791 27.8795 546.339 27.6774L551.497 15.8321L546.84 3.68381H551.146ZM494.103 3.68381V7.72486H487.016V13.155C488.569 13.155 490.948 13.0792 492.375 13.0792V17.1202C490.597 17.1202 488.519 17.1202 487.016 17.196V23.2071C489.37 23.0556 491.724 22.8534 494.103 22.7776V26.6669L483.009 27.5511V3.68381H494.103ZM543.409 3.68381V27.4754C542.107 27.3241 540.754 27.2483 539.477 27.1724V3.68381H543.409ZM529.286 3.68381V22.5504C531.564 22.6008 533.868 22.7779 536.097 22.904V26.8945C532.516 26.6671 528.935 26.4401 525.279 26.3641V3.68381H529.286ZM509.002 3.68381L509.002 7.72495H504.845V26.3137C503.493 26.3137 502.141 26.3137 500.839 26.3641V7.72495H496.682V3.68381H509.002ZM522.775 3.68381V7.72486H515.513V12.8773H520.997V16.9182H515.513V26.0864H511.581V3.68381H522.775Z" fill="#747873"/>
</svg>
