<svg width="19" height="19" viewBox="0 0 19 19" fill="none" xmlns="http://www.w3.org/2000/svg">
<circle cx="9.69835" cy="9.60667" r="8.84776" fill="#586A72"/>
<path d="M11.2642 7.05787C11.3805 6.94529 11.5352 6.88306 11.6958 6.8843C11.8563 6.88553 12.0101 6.95014 12.1247 7.06449C12.2393 7.17884 12.3058 7.33398 12.31 7.49719C12.3142 7.66039 12.256 7.81889 12.1475 7.93924L8.85383 12.1278C8.7972 12.1899 8.72884 12.2397 8.65285 12.2742C8.57687 12.3088 8.49481 12.3274 8.41158 12.3289C8.32836 12.3305 8.24568 12.315 8.16848 12.2833C8.09129 12.2517 8.02117 12.2045 7.96232 12.1446L5.7781 9.92358C5.71728 9.86594 5.66849 9.79644 5.63465 9.71922C5.60081 9.64199 5.58262 9.55863 5.58115 9.4741C5.57968 9.38957 5.59498 9.30561 5.62611 9.22722C5.65725 9.14883 5.7036 9.07762 5.76239 9.01784C5.82118 8.95805 5.89121 8.91093 5.96829 8.87926C6.04538 8.8476 6.12796 8.83205 6.21108 8.83354C6.29421 8.83503 6.37619 8.85354 6.45214 8.88794C6.52808 8.92235 6.59643 8.97196 6.65311 9.03382L8.38166 10.7907L11.2485 7.07633C11.2537 7.06987 11.2592 7.06371 11.265 7.05787H11.2642Z" fill="#5ABA4A"/>
</svg>
