<svg width="207" height="198" viewBox="0 0 207 198" fill="none" xmlns="http://www.w3.org/2000/svg">
<g filter="url(#filter0_d_457_843)">
<rect x="20.4956" y="20.7789" width="138.161" height="129.313" rx="6.80597" fill="white"/>
<path d="M60.8058 35.6433C61.5109 35.6433 62.1271 35.7799 62.6543 36.053C63.1879 36.3198 63.5976 36.7073 63.8834 37.2155C64.1756 37.7173 64.3218 38.3049 64.3218 38.9782C64.3218 39.6516 64.1756 40.236 63.8834 40.7314C63.5976 41.2269 63.1879 41.608 62.6543 41.8748C62.1271 42.1353 61.5109 42.2655 60.8058 42.2655H58.6428V35.6433H60.8058ZM60.8058 41.3794C61.5808 41.3794 62.1747 41.1697 62.5876 40.7505C63.0005 40.3312 63.2069 39.7405 63.2069 38.9782C63.2069 38.2096 63.0005 37.6093 62.5876 37.1774C62.1747 36.7454 61.5808 36.5294 60.8058 36.5294H59.7291V41.3794H60.8058ZM65.0362 39.6166C65.0362 39.0894 65.1442 38.6225 65.3602 38.216C65.5825 37.8094 65.8811 37.495 66.2559 37.2726C66.637 37.044 67.0562 36.9296 67.5136 36.9296C67.9265 36.9296 68.2854 37.0122 68.5903 37.1774C68.9016 37.3362 69.1493 37.5363 69.3335 37.7776V37.0154H70.4293V42.2655H69.3335V41.4842C69.1493 41.7319 68.8984 41.9384 68.5808 42.1035C68.2632 42.2687 67.9011 42.3513 67.4945 42.3513C67.0435 42.3513 66.6306 42.2369 66.2559 42.0082C65.8811 41.7732 65.5825 41.4492 65.3602 41.0363C65.1442 40.6171 65.0362 40.1439 65.0362 39.6166ZM69.3335 39.6357C69.3335 39.2736 69.2573 38.9592 69.1048 38.6924C68.9587 38.4256 68.765 38.2223 68.5236 38.0826C68.2822 37.9428 68.0218 37.8729 67.7423 37.8729C67.4628 37.8729 67.2023 37.9428 66.961 38.0826C66.7196 38.216 66.5227 38.416 66.3702 38.6828C66.2241 38.9433 66.151 39.2545 66.151 39.6166C66.151 39.9787 66.2241 40.2963 66.3702 40.5695C66.5227 40.8426 66.7196 41.0522 66.961 41.1983C67.2087 41.3381 67.4691 41.408 67.7423 41.408C68.0218 41.408 68.2822 41.3381 68.5236 41.1983C68.765 41.0586 68.9587 40.8553 69.1048 40.5885C69.2573 40.3154 69.3335 39.9978 69.3335 39.6357ZM72.4086 36.3198C72.2117 36.3198 72.0466 36.2531 71.9132 36.1197C71.7798 35.9863 71.7131 35.8212 71.7131 35.6242C71.7131 35.4273 71.7798 35.2622 71.9132 35.1288C72.0466 34.9954 72.2117 34.9287 72.4086 34.9287C72.5992 34.9287 72.7612 34.9954 72.8946 35.1288C73.028 35.2622 73.0947 35.4273 73.0947 35.6242C73.0947 35.8212 73.028 35.9863 72.8946 36.1197C72.7612 36.2531 72.5992 36.3198 72.4086 36.3198ZM72.9422 37.0154V42.2655H71.856V37.0154H72.9422ZM75.4546 35.2145V42.2655H74.3684V35.2145H75.4546ZM81.6068 37.0154L78.3862 44.7333H77.2619L78.329 42.1797L76.2614 37.0154H77.4715L78.9484 41.0173L80.4824 37.0154H81.6068ZM84.5396 38.9401C84.5396 38.2922 84.6889 37.7109 84.9874 37.1964C85.2923 36.6819 85.702 36.2817 86.2166 35.9958C86.7375 35.7036 87.306 35.5575 87.9222 35.5575C88.6273 35.5575 89.2529 35.7322 89.7992 36.0816C90.3519 36.4246 90.7521 36.9137 90.9998 37.549H89.6944C89.5229 37.1996 89.2847 36.9392 88.9798 36.7676C88.6749 36.5961 88.3223 36.5104 87.9222 36.5104C87.4839 36.5104 87.0932 36.6088 86.7502 36.8058C86.4071 37.0027 86.1372 37.2853 85.9403 37.6538C85.7497 38.0222 85.6544 38.451 85.6544 38.9401C85.6544 39.4292 85.7497 39.858 85.9403 40.2264C86.1372 40.5949 86.4071 40.8807 86.7502 41.084C87.0932 41.2809 87.4839 41.3794 87.9222 41.3794C88.3223 41.3794 88.6749 41.2936 88.9798 41.1221C89.2847 40.9506 89.5229 40.6901 89.6944 40.3408H90.9998C90.7521 40.976 90.3519 41.4651 89.7992 41.8081C89.2529 42.1512 88.6273 42.3227 87.9222 42.3227C87.2996 42.3227 86.7311 42.1797 86.2166 41.8939C85.702 41.6017 85.2923 41.1983 84.9874 40.6838C84.6889 40.1693 84.5396 39.588 84.5396 38.9401ZM91.9092 39.6166C91.9092 39.0894 92.0172 38.6225 92.2331 38.216C92.4555 37.8094 92.754 37.495 93.1288 37.2726C93.5099 37.044 93.9292 36.9296 94.3866 36.9296C94.7994 36.9296 95.1583 37.0122 95.4633 37.1774C95.7745 37.3362 96.0223 37.5363 96.2065 37.7776V37.0154H97.3022V42.2655H96.2065V41.4842C96.0223 41.7319 95.7713 41.9384 95.4537 42.1035C95.1361 42.2687 94.774 42.3513 94.3675 42.3513C93.9165 42.3513 93.5036 42.2369 93.1288 42.0082C92.754 41.7732 92.4555 41.4492 92.2331 41.0363C92.0172 40.6171 91.9092 40.1439 91.9092 39.6166ZM96.2065 39.6357C96.2065 39.2736 96.1302 38.9592 95.9778 38.6924C95.8317 38.4256 95.6379 38.2223 95.3966 38.0826C95.1552 37.9428 94.8947 37.8729 94.6152 37.8729C94.3357 37.8729 94.0753 37.9428 93.8339 38.0826C93.5925 38.216 93.3956 38.416 93.2431 38.6828C93.097 38.9433 93.024 39.2545 93.024 39.6166C93.024 39.9787 93.097 40.2963 93.2431 40.5695C93.3956 40.8426 93.5925 41.0522 93.8339 41.1983C94.0816 41.3381 94.3421 41.408 94.6152 41.408C94.8947 41.408 95.1552 41.3381 95.3966 41.1983C95.6379 41.0586 95.8317 40.8553 95.9778 40.5885C96.1302 40.3154 96.2065 39.9978 96.2065 39.6357ZM99.8152 35.2145V42.2655H98.729V35.2145H99.8152ZM103.519 42.3513C103.023 42.3513 102.575 42.2401 102.175 42.0178C101.775 41.7891 101.46 41.4715 101.232 41.0649C101.003 40.652 100.889 40.1756 100.889 39.6357C100.889 39.1021 101.006 38.6288 101.241 38.216C101.476 37.8031 101.797 37.4854 102.204 37.2631C102.61 37.0408 103.064 36.9296 103.566 36.9296C104.068 36.9296 104.522 37.0408 104.929 37.2631C105.335 37.4854 105.656 37.8031 105.891 38.216C106.126 38.6288 106.244 39.1021 106.244 39.6357C106.244 40.1693 106.123 40.6425 105.882 41.0554C105.64 41.4683 105.31 41.7891 104.891 42.0178C104.478 42.2401 104.02 42.3513 103.519 42.3513ZM103.519 41.408C103.798 41.408 104.059 41.3413 104.3 41.2079C104.548 41.0745 104.748 40.8744 104.9 40.6076C105.053 40.3408 105.129 40.0168 105.129 39.6357C105.129 39.2545 105.056 38.9338 104.91 38.6733C104.764 38.4065 104.57 38.2064 104.328 38.073C104.087 37.9396 103.827 37.8729 103.547 37.8729C103.268 37.8729 103.007 37.9396 102.766 38.073C102.531 38.2064 102.343 38.4065 102.204 38.6733C102.064 38.9338 101.994 39.2545 101.994 39.6357C101.994 40.201 102.137 40.6393 102.423 40.9506C102.715 41.2555 103.08 41.408 103.519 41.408ZM108.404 37.7776C108.563 37.5109 108.772 37.3044 109.033 37.1583C109.299 37.0058 109.614 36.9296 109.976 36.9296V38.054H109.7C109.274 38.054 108.95 38.162 108.728 38.3779C108.512 38.5939 108.404 38.9687 108.404 39.5023V42.2655H107.318V37.0154H108.404V37.7776ZM111.527 36.3198C111.33 36.3198 111.165 36.2531 111.032 36.1197C110.898 35.9863 110.831 35.8212 110.831 35.6242C110.831 35.4273 110.898 35.2622 111.032 35.1288C111.165 34.9954 111.33 34.9287 111.527 34.9287C111.718 34.9287 111.88 34.9954 112.013 35.1288C112.146 35.2622 112.213 35.4273 112.213 35.6242C112.213 35.8212 112.146 35.9863 112.013 36.1197C111.88 36.2531 111.718 36.3198 111.527 36.3198ZM112.061 37.0154V42.2655H110.974V37.0154H112.061ZM118.299 39.5118C118.299 39.7087 118.286 39.8866 118.26 40.0454H114.249C114.281 40.4646 114.436 40.8013 114.716 41.0554C114.995 41.3095 115.338 41.4365 115.745 41.4365C116.329 41.4365 116.742 41.192 116.984 40.7029H118.156C117.997 41.1856 117.708 41.5826 117.289 41.8939C116.876 42.1988 116.361 42.3513 115.745 42.3513C115.243 42.3513 114.792 42.2401 114.392 42.0178C113.998 41.7891 113.687 41.4715 113.458 41.0649C113.236 40.652 113.125 40.1756 113.125 39.6357C113.125 39.0957 113.233 38.6225 113.449 38.216C113.671 37.8031 113.979 37.4854 114.373 37.2631C114.773 37.0408 115.23 36.9296 115.745 36.9296C116.24 36.9296 116.682 37.0376 117.069 37.2536C117.457 37.4696 117.759 37.7745 117.975 38.1683C118.191 38.5558 118.299 39.0036 118.299 39.5118ZM117.165 39.1688C117.158 38.7686 117.015 38.4478 116.736 38.2064C116.456 37.965 116.11 37.8443 115.697 37.8443C115.323 37.8443 115.002 37.965 114.735 38.2064C114.468 38.4415 114.309 38.7622 114.259 39.1688H117.165ZM121.273 42.3513C120.86 42.3513 120.489 42.2782 120.158 42.1321C119.834 41.9797 119.577 41.7764 119.387 41.5223C119.196 41.2618 119.094 40.9728 119.082 40.6552H120.206C120.225 40.8775 120.33 41.0649 120.52 41.2174C120.717 41.3635 120.962 41.4365 121.254 41.4365C121.559 41.4365 121.794 41.3794 121.959 41.265C122.131 41.1443 122.217 40.9919 122.217 40.8077C122.217 40.6107 122.121 40.4646 121.931 40.3694C121.746 40.2741 121.451 40.1693 121.045 40.0549C120.651 39.9469 120.33 39.8421 120.082 39.7405C119.834 39.6389 119.618 39.4832 119.434 39.2736C119.256 39.064 119.167 38.7877 119.167 38.4446C119.167 38.1651 119.25 37.911 119.415 37.6824C119.58 37.4473 119.815 37.2631 120.12 37.1297C120.432 36.9963 120.787 36.9296 121.187 36.9296C121.785 36.9296 122.264 37.0821 122.626 37.387C122.995 37.6855 123.192 38.0953 123.217 38.6161H122.131C122.112 38.3811 122.016 38.1937 121.845 38.054C121.673 37.9142 121.442 37.8443 121.149 37.8443C120.863 37.8443 120.644 37.8983 120.492 38.0063C120.339 38.1143 120.263 38.2572 120.263 38.4351C120.263 38.5749 120.314 38.6924 120.416 38.7877C120.517 38.8829 120.641 38.9592 120.787 39.0163C120.933 39.0672 121.149 39.1338 121.435 39.2164C121.816 39.3181 122.128 39.4229 122.369 39.5309C122.617 39.6325 122.829 39.785 123.007 39.9882C123.185 40.1915 123.277 40.4615 123.284 40.7981C123.284 41.0967 123.201 41.3635 123.036 41.5985C122.871 41.8336 122.636 42.0178 122.331 42.1512C122.032 42.2846 121.68 42.3513 121.273 42.3513Z" fill="#636073"/>
<path d="M74.0721 50.4744V49.3419H76.3371V57.2804H75.0848V50.4744H74.0721ZM78.0425 53.2077C78.0425 51.9518 78.253 50.9717 78.6741 50.2675C79.1024 49.5561 79.8356 49.2003 80.8738 49.2003C81.9119 49.2003 82.6415 49.5561 83.0626 50.2675C83.4909 50.9717 83.7051 51.9518 83.7051 53.2077C83.7051 54.4782 83.4909 55.4727 83.0626 56.1914C82.6415 56.9029 81.9119 57.2586 80.8738 57.2586C79.8356 57.2586 79.1024 56.9029 78.6741 56.1914C78.253 55.4727 78.0425 54.4782 78.0425 53.2077ZM82.4854 53.2077C82.4854 52.6197 82.4455 52.1224 82.3656 51.7158C82.293 51.3093 82.1406 50.979 81.9083 50.7249C81.676 50.4635 81.3311 50.3329 80.8738 50.3329C80.4164 50.3329 80.0716 50.4635 79.8393 50.7249C79.607 50.979 79.4509 51.3093 79.371 51.7158C79.2984 52.1224 79.2621 52.6197 79.2621 53.2077C79.2621 53.8175 79.2984 54.3293 79.371 54.7431C79.4436 55.1569 79.5961 55.4909 79.8284 55.745C80.068 55.9991 80.4164 56.1261 80.8738 56.1261C81.3311 56.1261 81.676 55.9991 81.9083 55.745C82.1479 55.4909 82.3039 55.1569 82.3765 54.7431C82.4491 54.3293 82.4854 53.8175 82.4854 53.2077ZM85.7047 55.5925C86.4016 54.99 86.9497 54.4963 87.349 54.1115C87.7555 53.7195 88.0931 53.313 88.3617 52.8919C88.6303 52.4708 88.7646 52.0498 88.7646 51.6287C88.7646 51.1931 88.6594 50.8519 88.4488 50.6051C88.2456 50.3583 87.9225 50.2349 87.4797 50.2349C87.0513 50.2349 86.7174 50.3728 86.4778 50.6487C86.2455 50.9173 86.1221 51.2803 86.1076 51.7376H84.9097C84.9315 50.91 85.1783 50.2784 85.6502 49.8428C86.1293 49.4 86.7355 49.1786 87.4688 49.1786C88.2601 49.1786 88.8771 49.3964 89.32 49.8319C89.7701 50.2675 89.9951 50.8483 89.9951 51.5743C89.9951 52.097 89.8608 52.6015 89.5922 53.0879C89.3309 53.5671 89.0151 53.999 88.6448 54.3838C88.2818 54.7613 87.8172 55.2005 87.251 55.7014L86.7609 56.137H90.2129V57.1715H84.9206V56.2677L85.7047 55.5925ZM91.3035 53.2077C91.3035 51.9518 91.514 50.9717 91.9351 50.2675C92.3634 49.5561 93.0966 49.2003 94.1348 49.2003C95.1729 49.2003 95.9025 49.5561 96.3236 50.2675C96.7519 50.9717 96.9661 51.9518 96.9661 53.2077C96.9661 54.4782 96.7519 55.4727 96.3236 56.1914C95.9025 56.9029 95.1729 57.2586 94.1348 57.2586C93.0966 57.2586 92.3634 56.9029 91.9351 56.1914C91.514 55.4727 91.3035 54.4782 91.3035 53.2077ZM95.7464 53.2077C95.7464 52.6197 95.7065 52.1224 95.6267 51.7158C95.5541 51.3093 95.4016 50.979 95.1693 50.7249C94.937 50.4635 94.5921 50.3329 94.1348 50.3329C93.6774 50.3329 93.3326 50.4635 93.1003 50.7249C92.868 50.979 92.7119 51.3093 92.632 51.7158C92.5594 52.1224 92.5231 52.6197 92.5231 53.2077C92.5231 53.8175 92.5594 54.3293 92.632 54.7431C92.7046 55.1569 92.8571 55.4909 93.0894 55.745C93.329 55.9991 93.6774 56.1261 94.1348 56.1261C94.5921 56.1261 94.937 55.9991 95.1693 55.745C95.4089 55.4909 95.5649 55.1569 95.6375 54.7431C95.7101 54.3293 95.7464 53.8175 95.7464 53.2077ZM100.757 54.4301C100.757 53.8747 100.885 53.3765 101.141 52.9355C101.402 52.4944 101.754 52.1514 102.195 51.9064C102.641 51.6559 103.128 51.5307 103.657 51.5307C104.261 51.5307 104.797 51.6804 105.265 51.9799C105.739 52.2739 106.082 52.6932 106.295 53.2376H105.176C105.029 52.9382 104.824 52.715 104.563 52.5679C104.302 52.4209 104 52.3474 103.657 52.3474C103.281 52.3474 102.946 52.4318 102.652 52.6006C102.358 52.7694 102.127 53.0117 101.958 53.3275C101.794 53.6433 101.713 54.0108 101.713 54.4301C101.713 54.8493 101.794 55.2168 101.958 55.5326C102.127 55.8484 102.358 56.0934 102.652 56.2677C102.946 56.4365 103.281 56.5208 103.657 56.5208C104 56.5208 104.302 56.4473 104.563 56.3003C104.824 56.1533 105.029 55.9301 105.176 55.6306H106.295C106.082 56.1751 105.739 56.5944 105.265 56.8884C104.797 57.1824 104.261 57.3294 103.657 57.3294C103.123 57.3294 102.636 57.2069 102.195 56.9619C101.754 56.7114 101.402 56.3657 101.141 55.9246C100.885 55.4836 100.757 54.9854 100.757 54.4301ZM107.074 55.0099C107.074 54.558 107.167 54.1578 107.352 53.8094C107.542 53.4609 107.798 53.1914 108.119 53.0008C108.446 52.8048 108.805 52.7068 109.197 52.7068C109.551 52.7068 109.859 52.7776 110.12 52.9191C110.387 53.0552 110.599 53.2268 110.757 53.4337V52.7803H111.697V57.2804H110.757V56.6107C110.599 56.823 110.384 57 110.112 57.1416C109.84 57.2831 109.53 57.3539 109.181 57.3539C108.795 57.3539 108.441 57.2559 108.119 57.0599C107.798 56.8584 107.542 56.5807 107.352 56.2268C107.167 55.8675 107.074 55.4618 107.074 55.0099ZM110.757 55.0263C110.757 54.7159 110.692 54.4464 110.561 54.2177C110.436 53.989 110.27 53.8148 110.063 53.695C109.856 53.5752 109.633 53.5153 109.393 53.5153C109.154 53.5153 108.931 53.5752 108.724 53.695C108.517 53.8094 108.348 53.9809 108.217 54.2095C108.092 54.4328 108.03 54.6996 108.03 55.0099C108.03 55.3203 108.092 55.5925 108.217 55.8266C108.348 56.0608 108.517 56.2404 108.724 56.3657C108.936 56.4855 109.159 56.5454 109.393 56.5454C109.633 56.5454 109.856 56.4855 110.063 56.3657C110.27 56.2459 110.436 56.0717 110.561 55.843C110.692 55.6088 110.757 55.3366 110.757 55.0263ZM113.851 51.2367V57.2804H112.919V51.2367H113.851Z" fill="#FF6726"/>
<rect x="37.8501" y="142.632" width="47.2491" height="7.46039" rx="3.7302" transform="rotate(-90 37.8501 142.632)" fill="#D3D3D3"/>
<rect x="37.8501" y="143.876" width="27.3548" height="7.46039" rx="3.7302" transform="rotate(-90 37.8501 143.876)" fill="#DA890F"/>
<rect x="53.8447" y="143.967" width="63.9761" height="7.48657" rx="3.74328" transform="rotate(-90 53.8447 143.967)" fill="#D3D3D3"/>
<rect x="54.0142" y="143.876" width="34.8152" height="7.46039" rx="3.7302" transform="rotate(-90 54.0142 143.876)" fill="#DA890F"/>
<rect x="70.1792" y="143.967" width="52.406" height="7.48657" rx="3.74328" transform="rotate(-90 70.1792 143.967)" fill="#D3D3D3"/>
<rect x="70.1787" y="143.876" width="29.8416" height="7.46039" rx="3.7302" transform="rotate(-90 70.1787 143.876)" fill="#DA890F"/>
<rect x="86.5137" y="143.967" width="55.809" height="7.48657" rx="3.74328" transform="rotate(-90 86.5137 143.967)" fill="#D3D3D3"/>
<rect x="86.3428" y="143.876" width="34.8152" height="7.46039" rx="3.7302" transform="rotate(-90 86.3428 143.876)" fill="#DA890F"/>
<rect x="102.167" y="143.967" width="66.0179" height="7.48657" rx="3.74328" transform="rotate(-90 102.167 143.967)" fill="#D3D3D3"/>
<rect x="102.507" y="143.876" width="27.3548" height="7.46039" rx="3.7302" transform="rotate(-90 102.507 143.876)" fill="#DA890F"/>
<rect x="117.501" y="143.967" width="52.406" height="7.48657" rx="3.74328" transform="rotate(-90 117.501 143.967)" fill="#D3D3D3"/>
<rect x="117.671" y="143.876" width="33.5718" height="7.46039" rx="3.7302" transform="rotate(-90 117.671 143.876)" fill="#DA890F"/>
<rect x="133.836" y="143.967" width="61.2537" height="7.48657" rx="3.74328" transform="rotate(-90 133.836 143.967)" fill="#D3D3D3"/>
<rect x="133.835" y="143.876" width="28.5982" height="7.46039" rx="3.7302" transform="rotate(-90 133.835 143.876)" fill="#DA890F"/>
</g>
<defs>
<filter id="filter0_d_457_843" x="0.0776958" y="0.361021" width="206.221" height="197.373" filterUnits="userSpaceOnUse" color-interpolation-filters="sRGB">
<feFlood flood-opacity="0" result="BackgroundImageFix"/>
<feColorMatrix in="SourceAlpha" type="matrix" values="0 0 0 0 0 0 0 0 0 0 0 0 0 0 0 0 0 0 127 0" result="hardAlpha"/>
<feOffset dx="13.6119" dy="13.6119"/>
<feGaussianBlur stdDeviation="17.0149"/>
<feComposite in2="hardAlpha" operator="out"/>
<feColorMatrix type="matrix" values="0 0 0 0 0 0 0 0 0 0 0 0 0 0 0 0 0 0 0.25 0"/>
<feBlend mode="normal" in2="BackgroundImageFix" result="effect1_dropShadow_457_843"/>
<feBlend mode="normal" in="SourceGraphic" in2="effect1_dropShadow_457_843" result="shape"/>
</filter>
</defs>
</svg>
