<svg width="88" height="90" viewBox="0 0 88 90" fill="none" xmlns="http://www.w3.org/2000/svg">
<path d="M86.5072 24.6771L64.3084 2.20965C62.6008 0.481386 59.9445 0.481386 58.2369 2.20965L53.0192 7.49046C52.1654 8.25858 51.786 9.41076 51.786 10.5629C51.786 10.755 51.786 10.851 51.786 11.043C50.5527 10.947 49.2246 11.3311 48.2759 12.2912L43.1531 17.572C41.4455 19.3003 41.4455 21.9887 43.1531 23.717L50.363 31.0141L30.0615 51.4652L22.8516 44.1681C21.144 42.4398 18.4878 42.4398 16.7802 44.1681L11.5625 49.4489C10.6138 50.4091 10.2344 51.7533 10.3292 53.0015C10.1395 53.0015 10.0446 53.0015 9.8549 53.0015C8.7165 53.0015 7.67297 53.4815 6.81917 54.2497L1.6015 59.5305C-0.106099 61.2587 -0.106099 63.9472 1.6015 65.6754L23.8003 88.1429C24.6541 89.007 25.6976 89.3911 26.836 89.3911C27.9744 89.3911 29.018 89.007 29.8718 88.1429L35.0894 82.8621C35.9432 82.0939 36.3227 80.9418 36.3227 79.7896C36.3227 79.5976 36.3227 79.5015 36.3227 79.3095C36.5124 79.3095 36.6073 79.3095 36.797 79.3095C37.9354 79.3095 38.979 78.9255 39.8328 78.0613L45.0504 72.7805C46.758 71.0523 46.758 68.3638 45.0504 66.6356L37.8406 59.3384L58.142 38.7913L65.3519 46.0884C66.2057 46.9525 67.2492 47.3366 68.3876 47.3366C69.526 47.3366 70.5696 46.9525 71.4234 46.0884L76.641 40.8076C77.5897 39.8474 77.9692 38.5032 77.8743 37.255C78.064 37.255 78.1589 37.255 78.3486 37.255C79.487 37.255 80.5306 36.775 81.3844 36.0069L86.602 30.726C88.2148 29.0938 88.2148 26.4054 86.5072 24.6771ZM34.5202 79.6936C34.5202 80.3657 34.2356 80.9418 33.8562 81.4218L28.6385 86.7027C27.6898 87.6628 26.172 87.6628 25.3182 86.7027L3.0245 64.2352C2.07583 63.2751 2.07583 61.7388 3.0245 60.8747L8.24217 55.5939C8.7165 55.1138 9.2857 54.9218 9.94977 54.9218C10.6138 54.9218 11.183 55.2098 11.6574 55.5939L33.8562 78.0613C34.2356 78.4454 34.5202 79.1175 34.5202 79.6936ZM43.7223 71.3403L38.5046 76.6211C37.556 77.5813 36.0381 77.5813 35.1843 76.6211L12.9855 54.1536C12.0368 53.1935 12.0368 51.6573 12.9855 50.7931L18.2032 45.5123C18.6775 45.0322 19.2467 44.8402 19.9108 44.8402C20.5748 44.8402 21.144 45.0322 21.6184 45.5123L29.4923 53.4815L35.9432 60.0105L43.8172 67.9798C44.671 68.9399 44.671 70.4762 43.7223 71.3403ZM54.4422 39.8474L53.3987 38.7913C53.0192 38.4072 52.45 38.4072 52.0706 38.7913C51.6911 39.1753 51.6911 39.7514 52.0706 40.1355L53.1141 41.1917L36.5124 57.9942L31.3896 52.8094L33.6664 50.5051L34.71 51.5612C34.8997 51.7533 35.1843 51.8493 35.374 51.8493C35.5638 51.8493 35.8484 51.7533 36.0381 51.5612C36.4176 51.1772 36.4176 50.6011 36.0381 50.217L34.9946 49.1609L51.6911 32.2623L56.8139 37.4471L54.4422 39.8474ZM75.218 39.4634L70.0004 44.7442C69.0517 45.7043 67.5338 45.7043 66.68 44.7442L58.8061 36.775L52.3552 30.246L44.4812 22.2767C43.5326 21.3166 43.5326 19.7804 44.4812 18.9162L49.6989 13.6354C50.1732 13.1553 50.7424 12.9633 51.4065 12.9633C52.0706 12.9633 52.6398 13.1553 53.1141 13.6354L75.3129 36.1029C76.1667 36.967 76.1667 38.5032 75.218 39.4634ZM85.179 29.3818L79.9614 34.6626C79.1076 35.5268 77.4948 35.5268 76.641 34.6626L54.4422 12.1952C53.9679 11.7151 53.7782 11.139 53.7782 10.4669C53.7782 9.79482 54.0628 9.21873 54.4422 8.73866L59.6599 3.45784C60.0394 3.07378 60.7034 2.88175 61.2726 2.88175C61.8418 2.88175 62.5059 3.07378 62.9802 3.55386L85.179 26.0213C86.1277 26.9815 86.1277 28.5177 85.179 29.3818Z" fill="#747873"/>
</svg>
