<svg width="47" height="47" viewBox="0 0 47 47" fill="none" xmlns="http://www.w3.org/2000/svg">
<path d="M46.1564 17.8645L39.9245 11.6326L41.3626 10.1945C41.6274 9.9297 41.6274 9.50043 41.3626 9.23576L40.8833 8.75642L44.2388 5.4008C44.5036 5.13604 44.5036 4.70677 44.2388 4.44211L42.3213 2.52453C42.1941 2.39735 42.0218 2.32594 41.8419 2.32594C41.662 2.32594 41.4897 2.39735 41.3625 2.52453L38.0068 5.88015L37.5275 5.4008C37.4003 5.27362 37.2279 5.20221 37.0481 5.20221C36.8682 5.20221 36.6959 5.27362 36.5686 5.4008L35.1306 6.83894L28.8989 0.607054C28.6341 0.342296 28.2049 0.342296 27.9401 0.607054L22.1876 6.3595C22.0605 6.48659 21.9891 6.65906 21.9891 6.83884C21.9891 7.01863 22.0605 7.1911 22.1876 7.31819L29.3782 14.5089L14.1747 29.7123L6.98411 22.5217C6.71926 22.257 6.29008 22.257 6.02532 22.5217L0.272787 28.2743C0.00802936 28.539 0.00802936 28.9683 0.272787 29.233L6.50467 35.4648L5.06653 36.903C4.80178 37.1677 4.80178 37.597 5.06653 37.8617L5.54588 38.341L2.19027 41.6967C1.92551 41.9615 1.92551 42.3908 2.19027 42.6554L4.10775 44.5729C4.23493 44.7001 4.40731 44.7715 4.58719 44.7715C4.76707 44.7715 4.93935 44.7001 5.06663 44.5729L8.42224 41.2173L8.90159 41.6966C9.02877 41.8238 9.20115 41.8952 9.38102 41.8952C9.5609 41.8952 9.73319 41.8238 9.86046 41.6966L11.2985 40.2585L17.5304 46.4904C17.6628 46.6227 17.8364 46.689 18.0098 46.689C18.1833 46.689 18.3568 46.6228 18.4893 46.4904L24.2418 40.7379C24.5066 40.4731 24.5066 40.0438 24.2418 39.7792L17.0511 32.5885L32.2546 17.385L39.4452 24.5756C39.5776 24.7079 39.7511 24.7742 39.9246 24.7742C40.0981 24.7742 40.2716 24.708 40.404 24.5756L46.1566 18.8231C46.2837 18.696 46.3551 18.5235 46.3551 18.3437C46.3551 18.1639 46.2835 17.9917 46.1564 17.8645ZM41.8419 3.96267L42.8006 4.92145L39.9244 7.79763L38.9656 6.83884L41.8419 3.96267ZM37.0481 6.83884L39.9244 9.71511L38.9656 10.6739L36.0894 7.79763L37.0481 6.83884ZM4.58719 25.8774L20.886 42.1762L19.9273 43.1349L3.62849 26.8361L4.58719 25.8774ZM4.58719 43.1349L3.62849 42.1761L6.50476 39.2999L7.46345 40.2586L4.58719 43.1349ZM9.38093 40.2586L6.50476 37.3824L7.46345 36.4237L10.3396 39.2999L9.38093 40.2586ZM18.0097 45.0524L1.71101 28.7536L2.66971 27.7949L18.9685 44.0937L18.0097 45.0524ZM21.8448 41.2174L5.54597 24.9187L6.50476 23.9599L22.8036 40.2587L21.8448 41.2174ZM16.0923 31.6298L15.1336 30.6711L30.337 15.4676L31.2957 16.4263L16.0923 31.6298ZM39.9245 23.1377L23.6257 6.83884L24.5845 5.88006L26.0227 7.31819C26.155 7.45062 26.3286 7.51678 26.502 7.51678C26.6755 7.51678 26.8491 7.45062 26.9815 7.31819C27.2462 7.05344 27.2462 6.62416 26.9814 6.3595L25.5433 4.92145L26.502 3.96267L42.8007 20.2615L41.842 21.2202L28.8989 8.27698C28.634 8.01222 28.2048 8.01222 27.9401 8.27698C27.6753 8.54174 27.6753 8.97101 27.9401 9.23567L40.8832 22.1789L39.9245 23.1377ZM43.7595 19.3027L27.4607 3.00388L28.4194 2.04519L44.7183 18.3439L43.7595 19.3027Z" fill="white"/>
</svg>
