<svg width="77" height="62" viewBox="0 0 77 62" fill="none" xmlns="http://www.w3.org/2000/svg">
<path d="M70.127 52.7646C64.7956 58.5444 56.7282 61.4742 46.1528 61.4742L42.3528 61.4742L42.3528 50.762L45.408 50.1502C50.614 49.109 54.2354 47.0608 56.1734 44.055C57.1846 42.4358 57.7581 40.5817 57.8378 38.6742L46.1528 38.6742C45.1449 38.6742 44.1784 38.2739 43.4658 37.5612C42.7531 36.8486 42.3528 35.8821 42.3528 34.8742L42.3528 8.27425C42.3528 4.08285 45.7614 0.674253 49.9528 0.674253L72.7528 0.674255C73.7606 0.674255 74.7271 1.07461 75.4398 1.78725C76.1524 2.49989 76.5528 3.46643 76.5528 4.47425L76.5528 23.4743L76.5414 34.5664C76.5756 34.9882 77.2976 44.9822 70.127 52.7646ZM8.15276 0.674249L30.9528 0.674251C31.9606 0.674251 32.9271 1.0746 33.6398 1.78724C34.3524 2.49988 34.7528 3.46643 34.7528 4.47425L34.7528 23.4742L34.7414 34.5664C34.7756 34.9882 35.4976 44.9822 28.327 52.7646C22.9956 58.5444 14.9282 61.4742 4.35275 61.4742L0.552757 61.4742L0.552758 50.762L3.60796 50.1502C8.81396 49.109 12.4354 47.0608 14.3734 44.055C15.3846 42.4358 15.9581 40.5817 16.0378 38.6742L4.35275 38.6742C3.34493 38.6742 2.37839 38.2739 1.66575 37.5612C0.953112 36.8486 0.55276 35.8821 0.55276 34.8742L0.552762 8.27425C0.552762 4.08285 3.96136 0.674249 8.15276 0.674249Z" fill="white"/>
</svg>
