<svg width="46" height="45" viewBox="0 0 46 45" fill="none" xmlns="http://www.w3.org/2000/svg">
<path d="M3.85691 14.9962L5.07822 15.1197C8.56123 14.6643 10.9827 15.0144 13.0644 16.1148C15.0629 17.171 16.6999 18.8945 18.6453 21.2485C19.7227 20.8321 22.9203 19.6681 25.9997 21.0027C27.8938 21.8239 29.1179 23.4496 30.14 24.8069C30.9681 25.9066 31.642 26.8015 32.258 26.7246L33.2874 26.5956C31.9328 22.566 31.8285 18.0036 31.7317 13.7559C31.7205 13.2682 31.7093 12.7846 31.6963 12.2994C30.5419 12.3456 29.8975 11.9971 29.3035 11.6757C28.884 11.4488 28.4971 11.2395 27.9163 11.2967C26.1565 11.4701 24.2287 9.89151 24.2231 9.8871C24.1797 9.85216 24.1432 9.81158 24.1141 9.7673C23.8946 9.46947 21.2901 5.90347 21.4656 4.7044C21.6272 3.60272 22.826 3.27736 23.4105 3.18368C23.6839 2.62772 24.3416 1.36989 24.889 0.95526C25.2862 0.654079 25.9032 0.775645 26.6755 0.928088L26.694 0.932146C27.2119 1.0343 27.8141 1.15164 28.3706 1.15587C29.1917 1.16187 31.6033 2.3927 33.0086 3.10975C33.3375 3.27754 33.6086 3.41587 33.7868 3.50179L33.7886 3.5025L33.7889 3.50179C35.5037 4.32735 37.2862 10.2514 37.448 10.7993C38.2197 12.3539 39.0679 13.7204 39.9221 15.0966C41.5194 17.6698 43.1383 20.2777 44.4007 24.3053C45.3255 27.2548 45.9711 30.1376 45.942 32.3332C45.9155 34.3242 45.3368 35.787 43.937 36.3283C42.4942 36.8866 40.1303 37.6834 37.573 38.4248C35.5493 39.0112 33.3976 39.5649 31.4761 39.9398C29.1579 40.3924 25.2189 40.37 21.6348 39.9511C18.6884 39.6069 15.9536 38.9864 14.4942 38.1292C13.6561 39.2717 12.959 41.8443 12.3012 44.2725L12.2667 44.4C12.2524 44.4637 12.226 44.526 12.1871 44.5832C12.0233 44.8228 11.6985 44.8829 11.4614 44.7174C8.00928 42.3078 5.16317 39.0746 3.20169 35.2988C1.31015 31.658 0.239746 27.5143 0.239746 23.12C0.239746 22.1003 0.298186 21.09 0.411751 20.0928C0.527061 19.0811 0.699066 18.0876 0.924452 17.1158C1.08163 16.4372 1.47239 15.8724 1.99608 15.494C2.51785 15.1169 3.17168 14.9269 3.85691 14.9962ZM15.3492 34.1223C15.2454 34.0214 15.2422 33.8541 15.342 33.7491C15.442 33.6442 15.6072 33.641 15.711 33.7419C16.5581 34.5673 18.437 35.4274 20.8495 36.0003C22.9331 36.4952 25.4038 36.7707 27.9425 36.62C28.0864 36.612 28.2096 36.7235 28.2174 36.8691C28.2253 37.0148 28.115 37.1392 27.9711 37.1472C25.3787 37.301 22.8568 37.0201 20.7309 36.5152C18.2284 35.9208 16.2587 35.0087 15.3492 34.1223ZM30.5051 36.8536C30.3628 36.8781 30.2278 36.7814 30.2035 36.6374C30.1793 36.4936 30.2749 36.3571 30.4172 36.3326C30.6417 36.293 30.8601 36.251 31.0714 36.2068C31.2896 36.1607 31.5042 36.112 31.7142 36.0601C31.8543 36.0259 31.9953 36.1129 32.0291 36.2546C32.0629 36.3961 31.9769 36.5388 31.8369 36.5729C31.6143 36.6277 31.3945 36.678 31.1776 36.7235C30.9475 36.7719 30.7232 36.8153 30.5051 36.8536ZM39.1361 19.5831C39.0684 19.4546 39.1164 19.2948 39.2434 19.2263C39.3704 19.1579 39.5282 19.2066 39.5959 19.335C40.2496 20.5687 41.2771 22.76 42.0935 25.1344C42.6631 26.791 43.1311 28.5391 43.3012 30.12C43.3164 30.265 43.2126 30.3951 43.0692 30.4106C42.9258 30.4259 42.7972 30.3208 42.7819 30.1759C42.6167 28.6383 42.1587 26.9302 41.6009 25.308C40.794 22.9617 39.7805 20.7996 39.1361 19.5831ZM42.8523 31.6488C42.8743 31.505 43.0076 31.4064 43.1498 31.4286C43.2919 31.4509 43.3895 31.5857 43.3675 31.7295C43.3192 32.04 43.2571 32.3325 43.1803 32.6046C43.1049 32.8721 43.013 33.1277 42.9038 33.3693C42.844 33.5018 42.6892 33.56 42.5584 33.4995C42.4274 33.439 42.3696 33.2826 42.4295 33.1501C42.5251 32.9391 42.6074 32.7082 42.6774 32.4597C42.7508 32.2 42.8087 31.929 42.8523 31.6488ZM5.03373 16.1759L3.75469 16.0466C3.32921 16.0035 2.92397 16.1208 2.60106 16.3541C2.28008 16.5861 2.03987 16.9348 1.94235 17.3556C1.72586 18.2898 1.56066 19.2433 1.45024 20.2128C1.34208 21.1624 1.28643 22.1324 1.28643 23.12C1.28643 27.3407 2.31253 31.3166 4.12573 34.8069C5.89411 38.2107 8.41016 41.1548 11.4527 43.4159C12.1672 40.7922 12.9426 38.1315 14.0211 37.0754C14.2013 36.8806 14.5017 36.8509 14.717 37.0152C15.8667 37.8917 18.6677 38.5403 21.7535 38.9008C25.2455 39.3089 29.0598 39.3354 31.2799 38.902C33.1597 38.535 35.282 37.9886 37.2868 37.4074C39.8147 36.6747 42.1458 35.8892 43.5651 35.3401C44.4932 34.9812 44.8787 33.8688 44.8993 32.3209C44.9267 30.2573 44.3003 27.4849 43.4032 24.6238C42.1783 20.7162 40.5981 18.1707 39.0391 15.6591C38.1716 14.2615 37.3105 12.874 36.508 11.255C36.4873 11.2189 36.4705 11.1799 36.4583 11.138C36.4534 11.1208 34.7119 5.11797 33.3392 4.45703L33.3396 4.45615C33.1607 4.37005 32.8794 4.22643 32.5385 4.05246C31.2123 3.37582 28.9367 2.2145 28.3666 2.21027C27.6972 2.20533 27.0499 2.07882 26.4942 1.96943L26.475 1.9659C25.954 1.86321 25.5377 1.78117 25.5145 1.79881C25.0177 2.17515 24.2325 3.89066 24.2303 3.8956L24.2299 3.89543C24.1512 4.06781 23.9829 4.19132 23.7825 4.20155C23.7791 4.20173 22.5877 4.25942 22.5001 4.85737C22.3904 5.60617 24.5853 8.63774 24.9235 9.09983C25.2054 9.31861 26.6218 10.3642 27.8183 10.2463C28.7094 10.1585 29.2297 10.4401 29.7941 10.7453C30.3387 11.0399 30.9365 11.3634 32.1341 11.2021C32.1516 11.1998 32.1692 11.1984 32.1872 11.1979C32.4752 11.1899 32.7149 11.4195 32.7229 11.7108C32.7428 12.3615 32.7585 13.0443 32.7742 13.7352C32.874 18.104 32.9816 22.8123 34.4766 26.8224C34.4977 26.8698 34.5124 26.9212 34.5188 26.9755C34.5539 27.2656 34.3498 27.5293 34.063 27.5648L32.3848 27.7748C31.1761 27.926 30.3389 26.8141 29.31 25.4479C28.3634 24.1906 27.2297 22.6849 25.591 21.9745C22.7967 20.7636 19.799 21.9287 18.9199 22.2704C18.7985 22.3175 18.7069 22.3533 18.6329 22.3747C18.6064 22.383 18.5797 22.3892 18.5525 22.3932L18.538 22.3952V22.395C18.368 22.4153 18.1914 22.3505 18.074 22.2071C16.1031 19.8026 14.4945 18.0603 12.5821 17.0493C10.6883 16.0483 8.44365 15.7381 5.16684 16.172C5.12375 16.1789 5.07909 16.1803 5.03373 16.1759Z" fill="white"/>
</svg>
